<?xml version="1.0" encoding="utf-8"?>
<!-- Generator: Adobe Illustrator 19.0.0, SVG Export Plug-In . SVG Version: 6.00 Build 0)  -->
<svg version="1.1" id="Camada_1" xmlns="http://www.w3.org/2000/svg" xmlns:xlink="http://www.w3.org/1999/xlink" x="0px" y="0px"
	 viewBox="0 0 300 361" style="enable-background:new 0 0 300 361;" xml:space="preserve">
<style type="text/css">
	.st0{fill:none;stroke:#213966;stroke-width:2.9259;stroke-miterlimit:22.9256;}
	.st1{fill-rule:evenodd;clip-rule:evenodd;fill:#213966;}
	.st2{fill:#FFFFFF;}
</style>
<polygon class="st0" points="6.5,7.5 294.5,7.5 294.5,355.7 6.5,355.7 6.5,7.5 "/>
<path class="st1" d="M105.2,59.7l11-13.6h71l10.8,14.3c0,0-12.3,12.6-2.5,32.7c9.8,20.1,11.2,36.5,6.1,45.9
	c-5.2,9.4-9.8,16.5-42.5,25.5c0,0-3.9,1.3-7.2,5.7c0,0-3.6-4.8-7.8-6.2c-4.2-1.4-18.5-4.6-25.6-8.8c-7.1-4.1-18.9-11-19.7-31.3
	c-0.8-20.3,14.1-31.8,13.1-48.5C111.9,75.5,111.8,68.1,105.2,59.7L105.2,59.7z M156.9,69.7l0.6-0.1c0.1,0.4,0.2,0.6,0.4,0.8
	c0.2,0.2,0.4,0.2,0.6,0.2c0.3,0,0.6-0.1,0.8-0.3c0.2-0.2,0.3-0.5,0.3-0.8c0-0.3-0.1-0.5-0.3-0.7c-0.2-0.2-0.4-0.3-0.7-0.3
	c-0.1,0-0.3,0-0.5,0.1l0.1-0.6c0,0,0.1,0,0.1,0c0.3,0,0.5-0.1,0.7-0.2c0.2-0.1,0.3-0.4,0.3-0.7c0-0.2-0.1-0.4-0.2-0.6
	c-0.2-0.2-0.4-0.2-0.6-0.2c-0.2,0-0.5,0.1-0.6,0.2c-0.2,0.2-0.3,0.4-0.3,0.7l-0.6-0.1c0.1-0.4,0.3-0.8,0.5-1c0.3-0.2,0.6-0.4,1-0.4
	c0.3,0,0.5,0.1,0.8,0.2c0.2,0.1,0.4,0.3,0.5,0.5c0.1,0.2,0.2,0.4,0.2,0.7c0,0.2-0.1,0.4-0.2,0.6c-0.1,0.2-0.3,0.3-0.5,0.4
	c0.3,0.1,0.5,0.2,0.7,0.4c0.2,0.2,0.3,0.5,0.3,0.8c0,0.5-0.2,0.8-0.5,1.2c-0.3,0.3-0.8,0.5-1.3,0.5c-0.5,0-0.8-0.1-1.1-0.4
	C157.1,70.4,157,70.1,156.9,69.7L156.9,69.7z M153.9,68.2c-0.3-0.1-0.5-0.2-0.6-0.4c-0.1-0.2-0.2-0.4-0.2-0.6c0-0.4,0.1-0.7,0.4-1
	c0.3-0.3,0.6-0.4,1.1-0.4c0.5,0,0.8,0.1,1.1,0.4c0.3,0.3,0.4,0.6,0.4,1c0,0.2-0.1,0.5-0.2,0.6c-0.1,0.2-0.3,0.3-0.6,0.4
	c0.3,0.1,0.6,0.3,0.7,0.5c0.2,0.2,0.2,0.5,0.2,0.8c0,0.4-0.2,0.8-0.5,1.1c-0.3,0.3-0.7,0.5-1.2,0.5s-0.9-0.2-1.2-0.5
	c-0.3-0.3-0.5-0.7-0.5-1.1c0-0.3,0.1-0.6,0.3-0.8C153.3,68.4,153.5,68.3,153.9,68.2L153.9,68.2z M153.7,67.1c0,0.2,0.1,0.4,0.2,0.6
	c0.2,0.2,0.4,0.2,0.6,0.2c0.2,0,0.4-0.1,0.6-0.2c0.2-0.2,0.2-0.3,0.2-0.6c0-0.2-0.1-0.4-0.2-0.6c-0.2-0.2-0.4-0.2-0.6-0.2
	c-0.2,0-0.4,0.1-0.6,0.2C153.8,66.7,153.7,66.9,153.7,67.1L153.7,67.1z M153.5,69.5c0,0.2,0,0.4,0.1,0.5c0.1,0.2,0.2,0.3,0.4,0.4
	c0.2,0.1,0.4,0.1,0.5,0.1c0.3,0,0.6-0.1,0.8-0.3c0.2-0.2,0.3-0.4,0.3-0.7c0-0.3-0.1-0.6-0.3-0.8c-0.2-0.2-0.5-0.3-0.8-0.3
	c-0.3,0-0.6,0.1-0.7,0.3C153.6,69,153.5,69.2,153.5,69.5L153.5,69.5z M149.8,68.2c-0.3-0.1-0.5-0.2-0.6-0.4
	c-0.1-0.2-0.2-0.4-0.2-0.6c0-0.4,0.1-0.7,0.4-1c0.3-0.3,0.6-0.4,1.1-0.4c0.5,0,0.8,0.1,1.1,0.4c0.3,0.3,0.4,0.6,0.4,1
	c0,0.2-0.1,0.5-0.2,0.6c-0.1,0.2-0.3,0.3-0.6,0.4c0.3,0.1,0.6,0.3,0.7,0.5c0.2,0.2,0.2,0.5,0.2,0.8c0,0.4-0.2,0.8-0.5,1.1
	c-0.3,0.3-0.7,0.5-1.2,0.5s-0.9-0.2-1.2-0.5c-0.3-0.3-0.5-0.7-0.5-1.1c0-0.3,0.1-0.6,0.3-0.8C149.2,68.4,149.5,68.3,149.8,68.2
	L149.8,68.2z M149.7,67.1c0,0.2,0.1,0.4,0.2,0.6c0.2,0.2,0.4,0.2,0.6,0.2c0.2,0,0.4-0.1,0.6-0.2c0.2-0.2,0.2-0.3,0.2-0.6
	c0-0.2-0.1-0.4-0.2-0.6c-0.2-0.2-0.4-0.2-0.6-0.2c-0.2,0-0.4,0.1-0.6,0.2C149.8,66.7,149.7,66.9,149.7,67.1L149.7,67.1z M149.5,69.5
	c0,0.2,0,0.4,0.1,0.5c0.1,0.2,0.2,0.3,0.4,0.4c0.2,0.1,0.4,0.1,0.6,0.1c0.3,0,0.6-0.1,0.8-0.3c0.2-0.2,0.3-0.4,0.3-0.7
	c0-0.3-0.1-0.6-0.3-0.8c-0.2-0.2-0.5-0.3-0.8-0.3c-0.3,0-0.6,0.1-0.7,0.3C149.6,69,149.5,69.2,149.5,69.5L149.5,69.5z M147.2,71
	h-0.6V67c-0.2,0.1-0.4,0.3-0.6,0.4c-0.2,0.1-0.5,0.3-0.7,0.3v-0.6c0.4-0.2,0.7-0.4,0.9-0.6c0.3-0.2,0.5-0.5,0.6-0.7h0.4V71L147.2,71
	z M184.1,63.8c0.6-0.8,1.3-1.4,2-1.5c0.8-0.2,1.5,0,2.3,0.5c0.5,0.3,0.8,0.7,1,1.2c0.2,0.5,0.3,1,0.2,1.5c-0.1,0.5-0.3,1.1-0.6,1.6
	c-0.4,0.5-0.8,0.9-1.3,1.2c-0.5,0.3-1,0.4-1.5,0.3c-0.5-0.1-1-0.2-1.5-0.5c-0.5-0.3-0.8-0.7-1.1-1.2c-0.2-0.5-0.3-1-0.2-1.5
	C183.6,64.7,183.8,64.2,184.1,63.8L184.1,63.8z M184.8,64.3c-0.4,0.6-0.6,1.2-0.5,1.8c0.1,0.6,0.4,1,0.9,1.4c0.5,0.3,1,0.5,1.6,0.3
	c0.6-0.1,1.1-0.5,1.5-1.2c0.3-0.4,0.5-0.8,0.5-1.2c0.1-0.4,0-0.8-0.1-1.1c-0.2-0.4-0.4-0.6-0.7-0.9c-0.5-0.3-1-0.4-1.6-0.3
	C185.9,63.1,185.4,63.5,184.8,64.3L184.8,64.3z M177.4,63.1l3.2-5.3l2.3,1.4c0.5,0.3,0.8,0.6,1,0.8c0.2,0.2,0.3,0.5,0.3,0.9
	c0,0.3-0.1,0.6-0.3,0.9c-0.2,0.4-0.5,0.6-0.9,0.7c-0.4,0.1-0.9,0-1.4-0.2c0.1,0.2,0.2,0.4,0.3,0.5c0.1,0.3,0.1,0.7,0.2,1.1l0,2
	l-0.9-0.5l0-1.5c0-0.4,0-0.8-0.1-1c0-0.2-0.1-0.4-0.1-0.6c-0.1-0.1-0.1-0.2-0.2-0.3c-0.1-0.1-0.2-0.2-0.4-0.3l-0.8-0.5l-1.4,2.3
	L177.4,63.1L177.4,63.1z M179.9,60.6l1.5,0.9c0.3,0.2,0.6,0.3,0.8,0.4c0.2,0,0.4,0,0.6-0.1c0.2-0.1,0.3-0.2,0.4-0.4
	c0.2-0.3,0.2-0.5,0.1-0.8c-0.1-0.3-0.3-0.5-0.7-0.8l-1.7-1L179.9,60.6L179.9,60.6z M172.1,60.6l2.6-5.6l2.1,1c0.4,0.2,0.7,0.4,1,0.7
	c0.2,0.2,0.3,0.5,0.4,0.8c0,0.3,0,0.6-0.1,0.8c-0.1,0.2-0.3,0.4-0.5,0.6c-0.2,0.2-0.5,0.2-0.8,0.2c0.3,0.3,0.5,0.5,0.5,0.9
	c0.1,0.3,0,0.7-0.1,1c-0.1,0.3-0.3,0.5-0.5,0.7c-0.2,0.2-0.4,0.3-0.7,0.3c-0.2,0-0.5,0-0.7,0c-0.3-0.1-0.6-0.2-0.9-0.3L172.1,60.6
	L172.1,60.6z M174.4,57.7l1.2,0.6c0.3,0.2,0.6,0.2,0.7,0.3c0.2,0,0.4,0,0.6-0.1c0.2-0.1,0.3-0.2,0.4-0.4c0.1-0.2,0.1-0.4,0.1-0.6
	c0-0.2-0.1-0.3-0.2-0.5c-0.1-0.1-0.4-0.3-0.8-0.5l-1.1-0.5L174.4,57.7L174.4,57.7z M173.2,60.3l1.4,0.7c0.2,0.1,0.4,0.2,0.5,0.2
	c0.2,0,0.4,0.1,0.5,0c0.1,0,0.3-0.1,0.4-0.2c0.1-0.1,0.2-0.2,0.3-0.4c0.1-0.2,0.1-0.4,0.1-0.6c0-0.2-0.1-0.4-0.3-0.5
	c-0.2-0.2-0.4-0.3-0.8-0.5l-1.3-0.6L173.2,60.3L173.2,60.3z M165.4,58.1l2-5.9l1.2,0.4l0,4.6c0,0.4,0,0.8,0,1
	c0.1-0.2,0.3-0.5,0.6-0.8l2.8-3.6l1,0.3l-2,5.9l-0.7-0.2l1.6-4.9l-3.4,4.3l-0.7-0.2l0-5.6l-1.7,5L165.4,58.1L165.4,58.1z
	 M159.9,56.8l1.3-6.1l4.4,0.9l-0.1,0.7l-3.6-0.7l-0.4,1.9l3.3,0.7l-0.1,0.7l-3.3-0.7l-0.4,2.1l3.7,0.8l-0.1,0.7L159.9,56.8
	L159.9,56.8z M156.2,56.3l0.4-5.4l-2-0.2l0.1-0.7l4.9,0.4l-0.1,0.7l-2-0.2l-0.4,5.4L156.2,56.3L156.2,56.3z M148.8,56.1l-0.2-6.2
	l4.5-0.2l0,0.7l-3.6,0.1l0.1,1.9l3.4-0.1l0,0.7l-3.4,0.1l0.1,2.1l3.8-0.1l0,0.7L148.8,56.1L148.8,56.1z M142.6,54.9l0.7-0.2
	c0.1,0.3,0.2,0.5,0.4,0.7c0.2,0.2,0.4,0.3,0.7,0.4c0.3,0.1,0.6,0.1,1,0c0.3,0,0.6-0.1,0.8-0.3c0.2-0.1,0.4-0.3,0.5-0.5
	c0.1-0.2,0.1-0.4,0.1-0.6c0-0.2-0.1-0.3-0.2-0.5c-0.1-0.1-0.3-0.2-0.6-0.3c-0.2,0-0.6-0.1-1.1-0.1c-0.6,0-1-0.1-1.2-0.2
	c-0.3-0.1-0.6-0.3-0.7-0.5c-0.2-0.2-0.3-0.4-0.3-0.7c0-0.3,0-0.6,0.1-0.9c0.1-0.3,0.4-0.5,0.7-0.7c0.3-0.2,0.7-0.3,1.1-0.4
	c0.5-0.1,0.9-0.1,1.2,0c0.4,0.1,0.7,0.3,0.9,0.5c0.2,0.3,0.4,0.6,0.4,0.9l-0.8,0.2c-0.1-0.4-0.3-0.6-0.6-0.8
	c-0.3-0.2-0.6-0.2-1.1-0.1c-0.5,0.1-0.8,0.2-1,0.4c-0.2,0.2-0.3,0.4-0.2,0.7c0,0.2,0.1,0.4,0.3,0.5c0.2,0.1,0.6,0.2,1.3,0.2
	c0.7,0,1.2,0.1,1.4,0.2c0.4,0.1,0.7,0.3,0.9,0.5c0.2,0.2,0.3,0.5,0.4,0.8c0.1,0.3,0,0.6-0.1,1c-0.1,0.3-0.4,0.6-0.7,0.8
	c-0.3,0.2-0.7,0.4-1.1,0.4c-0.6,0.1-1,0.1-1.4,0c-0.4-0.1-0.7-0.3-1-0.6C142.8,55.6,142.6,55.3,142.6,54.9L142.6,54.9z M135.2,58.9
	l-1.9-5.9l4.3-1.3l0.2,0.7l-3.5,1.1l0.6,1.8l3.3-1l0.2,0.7l-3.3,1l0.6,2l3.6-1.1l0.2,0.7L135.2,58.9L135.2,58.9z M129.5,61.5
	l-2.6-5.6l1.9-0.9c0.4-0.2,0.8-0.3,1-0.4c0.4-0.1,0.7-0.1,1,0c0.4,0.1,0.8,0.3,1.1,0.6c0.3,0.3,0.6,0.7,0.8,1.2
	c0.2,0.4,0.3,0.8,0.4,1.2c0.1,0.4,0.1,0.7,0,1c-0.1,0.3-0.1,0.5-0.3,0.7c-0.1,0.2-0.3,0.4-0.5,0.6c-0.2,0.2-0.5,0.4-0.9,0.5
	L129.5,61.5L129.5,61.5z M130,60.5l1.2-0.6c0.4-0.2,0.6-0.3,0.8-0.5c0.2-0.2,0.3-0.3,0.4-0.5c0.1-0.3,0.1-0.6,0.1-0.9
	c0-0.3-0.2-0.7-0.4-1.2c-0.3-0.6-0.6-1-0.9-1.2c-0.3-0.2-0.7-0.3-1-0.3c-0.2,0-0.6,0.1-1,0.3l-1.2,0.5L130,60.5L130,60.5z
	 M121.5,63.1c-0.4-0.6-0.7-1.1-0.8-1.6c-0.1-0.5-0.1-0.9,0-1.2c0.1-0.4,0.3-0.7,0.7-0.9c0.3-0.2,0.5-0.3,0.8-0.3
	c0.3,0,0.6,0,0.8,0.1c0.3,0.1,0.6,0.3,0.8,0.5c0.3,0.2,0.6,0.6,1,1.1c0.4,0.6,0.7,1.1,0.8,1.6c0.1,0.5,0.2,0.9,0,1.2
	c-0.1,0.4-0.3,0.7-0.7,0.9c-0.5,0.3-1,0.4-1.5,0.3C122.8,64.6,122.1,64,121.5,63.1L121.5,63.1z M122.1,62.6c0.6,0.8,1.1,1.3,1.5,1.5
	c0.4,0.1,0.7,0.1,1-0.1c0.3-0.2,0.4-0.5,0.4-0.9c0-0.4-0.3-1-0.9-1.9c-0.6-0.8-1.1-1.3-1.5-1.5c-0.4-0.1-0.7-0.1-1,0.1
	c-0.3,0.2-0.4,0.5-0.4,0.8C121.2,61.2,121.5,61.8,122.1,62.6L122.1,62.6z M118.5,67.4l0.5-0.6c0.3,0.3,0.7,0.4,0.9,0.4
	c0.3,0,0.5-0.1,0.8-0.3c0.3-0.2,0.4-0.5,0.5-0.9c0-0.3-0.1-0.7-0.3-0.9c-0.2-0.3-0.5-0.4-0.8-0.4c-0.3,0-0.6,0.1-0.9,0.3
	c-0.1,0.1-0.2,0.2-0.4,0.4l-0.4-0.6c0,0,0.1-0.1,0.1-0.1c0.2-0.2,0.4-0.5,0.5-0.8c0.1-0.3,0-0.6-0.2-0.8c-0.2-0.2-0.4-0.3-0.7-0.3
	c-0.3,0-0.5,0.1-0.7,0.3c-0.2,0.2-0.4,0.4-0.4,0.7c0,0.3,0.1,0.6,0.3,0.9l-0.7,0.4c-0.3-0.4-0.4-0.9-0.3-1.3
	c0.1-0.4,0.3-0.8,0.7-1.1c0.3-0.2,0.5-0.4,0.9-0.4c0.3-0.1,0.6-0.1,0.9,0c0.3,0.1,0.5,0.2,0.7,0.5c0.2,0.2,0.3,0.4,0.3,0.7
	c0,0.3,0,0.5-0.1,0.8c0.3-0.2,0.7-0.2,1-0.2c0.3,0.1,0.6,0.3,0.9,0.6c0.4,0.4,0.5,0.9,0.4,1.4c-0.1,0.5-0.3,1-0.8,1.4
	c-0.4,0.4-0.9,0.5-1.3,0.5C119.3,68,118.8,67.8,118.5,67.4L118.5,67.4z M99.9,60l14.9-18l74-0.1l14.9,18.6c0,0-14.5,7.8-4.6,30.9
	c0,0,6.3,12.8,8.2,20.9c1.9,8.1,5.9,36.7-25.8,48.8c0,0-11.9,4.5-15,5.1c-3.1,0.7-10.5,2.9-14.6,9.8c0,0-5-6.7-10.2-8.4
	c-5.1-1.8-23.1-3.9-35.7-16.5c-12.6-12.6-12.7-28.8-9.5-40.4C99.9,99.2,117.3,74.6,99.9,60L99.9,60z M102.5,60.1L116,43.8l72.3,0
	l13.1,16.5c0,0-13.6,9.6-4.1,31.9c0,0,6.8,13.4,8.6,21.2c1.8,7.8,5.5,35.2-25.5,46c0,0-11.5,4.3-14.4,4.9c-3,0.7-10.1,2.8-14,9.4
	c0,0-4.9-6.4-9.8-8.1c-4.9-1.7-22.5-3.4-34.6-15.5c-12.1-12.1-12-28.1-8.8-39.3C101.8,99.6,119.3,74.1,102.5,60.1L102.5,60.1z
	 M71.6,98.8l7.2,7.1l8.4-6.4c0,0-10.9,36.1,10.2,58.9c0,0,8.8,11.5,29.5,17.5l1.4,0.4c0,0,2.6-3.2,8.6-1.4c5.9,1.9,7.8,3.8,7.8,3.8
	s2.2-3,6.2-2.7c4.1,0.3,5.4,2.2,5.4,2.2s12.8-7.1,16.5-2.1c0,0,30.6-4.2,40.8-36.3c0,0,5.6-12,0.1-39.7l8.7,5.5l7.2-7.2
	c0,0,7.1,35.5-4.6,56.1c-11.6,20.5-25.7,28.1-46.7,34.3c0,0,14.5,13.1,29.9,15.4l-9.5,4.7l3.5,7.8c0,0-33.1-4.1-46.3-28.6
	c0,0-3.2,2.7-6.2,1.8c-3-0.9-4.2-2-4.2-2s-13.5,24.9-46.8,29.2l3.8-8.2l-9.5-5c0,0,20.9-5.3,29.9-15.3c0,0-32.4-3.1-48-35.8
	C75,152.7,64.6,128.7,71.6,98.8L71.6,98.8z M181.9,185.4l-2.3-8.4l1.7-0.5l3.6,5.4c0.3,0.5,0.6,0.9,0.7,1.1c0-0.3,0-0.8,0.1-1.5
	l0.4-6.4l1.5-0.4l2.3,8.4l-1.1,0.3l-2-7.1l-0.5,7.7l-1,0.3l-4.4-6.5l2,7.2L181.9,185.4L181.9,185.4z M189.7,178.8
	c-0.6-1.3-0.7-2.5-0.3-3.6c0.4-1.1,1.2-1.8,2.3-2.3c0.7-0.3,1.5-0.4,2.2-0.3c0.7,0.1,1.4,0.4,2,0.9c0.6,0.5,1.1,1.2,1.4,2
	c0.4,0.8,0.5,1.6,0.4,2.4c-0.1,0.8-0.3,1.5-0.8,2.1c-0.5,0.6-1,1-1.7,1.3c-0.8,0.3-1.5,0.4-2.3,0.3c-0.8-0.1-1.4-0.4-2-0.9
	C190.5,180.1,190,179.5,189.7,178.8L189.7,178.8z M190.8,178.4c0.4,1,1,1.6,1.8,2c0.8,0.3,1.5,0.3,2.3,0c0.8-0.3,1.3-0.9,1.6-1.7
	c0.3-0.8,0.2-1.7-0.3-2.7c-0.3-0.7-0.6-1.2-1.1-1.6c-0.4-0.4-0.9-0.6-1.5-0.7c-0.5-0.1-1.1,0-1.6,0.2c-0.8,0.3-1.3,0.9-1.6,1.6
	C190.2,176.2,190.3,177.2,190.8,178.4L190.8,178.4z M198.5,176.4l0.9-0.7c0.3,0.3,0.6,0.6,0.9,0.7c0.3,0.1,0.7,0.2,1.1,0.1
	c0.4-0.1,0.8-0.2,1.3-0.5c0.4-0.2,0.7-0.5,0.9-0.8c0.2-0.3,0.3-0.6,0.3-0.9c0-0.3-0.1-0.5-0.2-0.8c-0.2-0.2-0.3-0.4-0.6-0.5
	c-0.2-0.1-0.6-0.1-0.9,0c-0.2,0.1-0.8,0.2-1.5,0.5c-0.8,0.3-1.3,0.4-1.7,0.5c-0.5,0-0.9,0-1.2-0.2c-0.4-0.2-0.6-0.4-0.9-0.7
	c-0.2-0.4-0.4-0.8-0.4-1.2c0-0.5,0.1-0.9,0.4-1.3c0.3-0.4,0.7-0.8,1.2-1.1c0.5-0.4,1.1-0.6,1.6-0.7c0.5-0.1,1-0.1,1.5,0.1
	c0.4,0.2,0.8,0.5,1.1,0.9l-0.9,0.7c-0.4-0.4-0.8-0.7-1.2-0.7c-0.4,0-0.9,0.1-1.5,0.5c-0.6,0.4-0.9,0.8-1.1,1.2
	c-0.1,0.4-0.1,0.7,0.1,1c0.2,0.3,0.4,0.4,0.7,0.5c0.3,0,0.9-0.1,1.8-0.4c0.9-0.3,1.5-0.5,1.9-0.6c0.6-0.1,1,0,1.4,0.1
	c0.4,0.2,0.7,0.4,1,0.8c0.3,0.4,0.4,0.8,0.4,1.3c0,0.5-0.1,1-0.4,1.4c-0.3,0.5-0.7,0.9-1.2,1.2c-0.7,0.4-1.3,0.7-1.9,0.8
	c-0.6,0.1-1.1,0-1.6-0.2C199.2,177.2,198.8,176.9,198.5,176.4L198.5,176.4z M205,172.2l0.7-0.8c0.3,0.3,0.7,0.5,1,0.6
	c0.3,0.1,0.7,0,1.1-0.1c0.4-0.1,0.8-0.4,1.2-0.7c0.3-0.3,0.6-0.6,0.7-0.9c0.2-0.3,0.2-0.6,0.2-0.9c0-0.3-0.1-0.5-0.3-0.7
	c-0.2-0.2-0.4-0.3-0.7-0.4c-0.3,0-0.6,0-0.9,0.2c-0.2,0.1-0.7,0.3-1.4,0.7c-0.7,0.4-1.3,0.7-1.6,0.7c-0.5,0.1-0.9,0.1-1.2,0
	c-0.4-0.1-0.7-0.3-1-0.6c-0.3-0.3-0.5-0.7-0.6-1.2c-0.1-0.5,0-0.9,0.2-1.4c0.2-0.5,0.5-0.9,1-1.3c0.5-0.4,1-0.8,1.5-0.9
	c0.5-0.2,1-0.2,1.5-0.1c0.5,0.1,0.9,0.4,1.3,0.7l-0.8,0.8c-0.4-0.4-0.9-0.5-1.3-0.5c-0.4,0-0.9,0.3-1.4,0.7
	c-0.5,0.5-0.8,0.9-0.9,1.3c-0.1,0.4,0,0.7,0.3,1c0.2,0.2,0.5,0.3,0.8,0.3c0.3,0,0.9-0.2,1.7-0.7c0.8-0.5,1.4-0.8,1.8-0.9
	c0.5-0.2,1-0.2,1.4-0.1c0.4,0.1,0.8,0.3,1.1,0.7c0.3,0.3,0.5,0.8,0.6,1.2c0.1,0.5,0,1-0.2,1.5c-0.2,0.5-0.5,1-1,1.4
	c-0.6,0.5-1.1,0.9-1.7,1.1c-0.5,0.2-1.1,0.2-1.6,0.1C205.9,172.9,205.4,172.6,205,172.2L205,172.2z M209.6,165.9
	c-1.1-0.9-1.7-2-1.9-3.1c-0.1-1.1,0.2-2.2,1-3.1c0.5-0.6,1.1-1.1,1.9-1.3c0.7-0.2,1.4-0.3,2.2-0.1c0.7,0.2,1.5,0.6,2.1,1.1
	c0.7,0.6,1.2,1.2,1.5,1.9c0.3,0.7,0.4,1.5,0.2,2.2c-0.1,0.7-0.5,1.4-1,2c-0.5,0.6-1.2,1.1-1.9,1.3c-0.7,0.2-1.5,0.3-2.2,0.1
	C210.8,166.8,210.1,166.4,209.6,165.9L209.6,165.9z M210.3,165c0.8,0.7,1.6,1,2.5,1c0.8,0,1.5-0.4,2.1-1c0.6-0.7,0.8-1.4,0.7-2.2
	c-0.1-0.8-0.6-1.6-1.4-2.3c-0.5-0.5-1.1-0.8-1.7-0.9c-0.6-0.2-1.1-0.2-1.6,0c-0.5,0.2-1,0.5-1.3,0.9c-0.5,0.6-0.8,1.3-0.7,2.2
	C208.8,163.4,209.3,164.2,210.3,165L210.3,165z M219,161l-7.7-4.2l1.9-3.4c0.4-0.7,0.7-1.2,1.1-1.4c0.3-0.3,0.7-0.4,1.2-0.5
	c0.5,0,0.9,0.1,1.3,0.3c0.5,0.3,0.9,0.7,1.1,1.3c0.2,0.6,0.1,1.2-0.2,2c0.3-0.2,0.5-0.3,0.7-0.4c0.4-0.1,0.9-0.2,1.5-0.3l2.8-0.2
	l-0.7,1.3l-2.2,0.1c-0.6,0-1.1,0.1-1.5,0.2c-0.4,0.1-0.6,0.1-0.8,0.2c-0.2,0.1-0.3,0.2-0.5,0.4c-0.1,0.1-0.2,0.3-0.3,0.5l-0.6,1.2
	l3.4,1.9L219,161L219,161z M215.3,157.6l1.2-2.2c0.3-0.5,0.4-0.9,0.5-1.2c0-0.3,0-0.6-0.1-0.8c-0.1-0.3-0.3-0.4-0.6-0.6
	c-0.4-0.2-0.7-0.2-1.1-0.1c-0.4,0.1-0.7,0.5-1,1.1l-1.3,2.4L215.3,157.6L215.3,157.6z M218.9,151.9c-1.4-0.5-2.3-1.3-2.8-2.3
	c-0.5-1-0.5-2.1-0.1-3.3c0.3-0.8,0.7-1.4,1.3-1.8c0.6-0.5,1.3-0.7,2-0.8c0.8-0.1,1.6,0,2.4,0.4c0.8,0.3,1.5,0.8,2,1.4
	c0.5,0.6,0.8,1.2,0.9,2c0.1,0.7,0,1.5-0.3,2.2c-0.3,0.8-0.7,1.4-1.3,1.9c-0.6,0.5-1.3,0.7-2,0.8
	C220.4,152.3,219.7,152.2,218.9,151.9L218.9,151.9z M219.4,150.8c1,0.4,1.9,0.4,2.6,0.1c0.8-0.3,1.3-0.9,1.6-1.7
	c0.3-0.8,0.3-1.6-0.1-2.3c-0.4-0.7-1.1-1.3-2.1-1.7c-0.7-0.3-1.3-0.4-1.9-0.3c-0.6,0-1.1,0.2-1.5,0.5c-0.4,0.3-0.8,0.8-1,1.3
	c-0.3,0.8-0.3,1.5,0,2.3C217.4,149.7,218.2,150.3,219.4,150.8L219.4,150.8z M215.4,147l-1.3-1.3l0.5-1.3l1.1,1.8L215.4,147
	L215.4,147z M227.6,137.3l-0.2,1.1l-6.8-1.1c0.2,0.3,0.4,0.7,0.6,1.1c0.2,0.5,0.3,0.9,0.4,1.2l-1-0.2c-0.2-0.6-0.4-1.2-0.7-1.7
	c-0.3-0.5-0.7-0.9-1-1.1l0.1-0.7L227.6,137.3L227.6,137.3z M223.5,132.3c-0.2,0.4-0.5,0.7-0.8,0.9c-0.3,0.2-0.7,0.2-1.1,0.2
	c-0.6-0.1-1.1-0.4-1.5-0.9c-0.4-0.5-0.5-1.1-0.5-1.9c0.1-0.8,0.4-1.3,0.9-1.8c0.5-0.4,1.1-0.6,1.7-0.5c0.4,0,0.7,0.2,1,0.4
	c0.3,0.2,0.5,0.6,0.6,1c0.2-0.5,0.6-0.9,1-1.1c0.4-0.2,0.9-0.3,1.4-0.3c0.7,0.1,1.3,0.4,1.8,1c0.5,0.6,0.6,1.3,0.5,2.2
	c-0.1,0.9-0.4,1.5-1,2c-0.6,0.5-1.2,0.7-2,0.6c-0.6-0.1-1-0.3-1.4-0.6C223.8,133.3,223.6,132.9,223.5,132.3L223.5,132.3z
	 M221.7,132.4c0.4,0,0.8-0.1,1.1-0.3c0.3-0.2,0.5-0.6,0.5-1c0-0.4,0-0.8-0.3-1.1c-0.2-0.3-0.5-0.5-0.9-0.5c-0.4,0-0.7,0.1-1,0.3
	c-0.3,0.2-0.5,0.6-0.5,1c0,0.4,0.1,0.8,0.3,1.1C221,132.2,221.3,132.3,221.7,132.4L221.7,132.4z M225.7,133.1c0.3,0,0.6,0,0.9-0.1
	c0.3-0.1,0.5-0.3,0.7-0.6c0.2-0.3,0.3-0.6,0.3-0.9c0.1-0.5-0.1-1-0.4-1.3c-0.3-0.4-0.7-0.6-1.2-0.6c-0.5-0.1-1,0.1-1.3,0.4
	c-0.4,0.3-0.6,0.7-0.6,1.2c-0.1,0.5,0.1,0.9,0.4,1.3C224.8,132.9,225.2,133.1,225.7,133.1L225.7,133.1z M226.5,127.8l-0.1-1.1
	c0.5-0.1,1-0.3,1.2-0.6c0.3-0.3,0.4-0.7,0.4-1.1c0-0.5-0.2-1-0.6-1.3c-0.4-0.4-0.9-0.5-1.6-0.5c-0.6,0-1.1,0.2-1.4,0.5
	c-0.4,0.3-0.5,0.8-0.5,1.4c0,0.3,0.1,0.7,0.2,0.9c0.2,0.3,0.4,0.5,0.6,0.6l-0.1,1l-4.5-0.8l0-4.3l1,0l0,3.5l2.4,0.4
	c-0.4-0.5-0.6-1.1-0.6-1.6c0-0.8,0.3-1.4,0.8-1.9c0.5-0.5,1.2-0.8,2-0.8c0.8,0,1.5,0.2,2.1,0.7c0.7,0.6,1.1,1.3,1.1,2.3
	c0,0.8-0.2,1.4-0.7,2C227.8,127.4,227.2,127.7,226.5,127.8L226.5,127.8z M227.3,115.4l1-0.1l0.4,5.8c-0.3,0-0.5,0-0.8-0.1
	c-0.4-0.1-0.8-0.3-1.2-0.6c-0.4-0.3-0.9-0.7-1.4-1.3c-0.8-0.9-1.5-1.5-2-1.8c-0.5-0.3-0.9-0.5-1.3-0.4c-0.4,0-0.8,0.2-1,0.5
	c-0.3,0.3-0.4,0.7-0.4,1.2c0,0.5,0.2,0.9,0.5,1.2c0.3,0.3,0.8,0.4,1.3,0.4l0,1.1c-0.8,0-1.5-0.3-1.9-0.7c-0.5-0.5-0.7-1.1-0.8-1.9
	c-0.1-0.8,0.1-1.5,0.6-2c0.4-0.5,1-0.8,1.7-0.8c0.4,0,0.7,0,1,0.2c0.3,0.1,0.7,0.3,1.1,0.6c0.4,0.3,0.9,0.8,1.6,1.6
	c0.6,0.6,1,1,1.2,1.2c0.2,0.2,0.4,0.3,0.6,0.4L227.3,115.4L227.3,115.4z M73.3,113.8l9.3,1.1l-0.2,1.8l-6.8,1.4
	c-0.6,0.1-1.1,0.2-1.4,0.3c0.3,0.1,0.8,0.4,1.4,0.7l6.2,3l-0.2,1.6l-9.3-1.1l0.1-1.2l7.7,0.9l-7.4-3.6l0.1-1.1l8.2-1.7l-7.9-1
	L73.3,113.8L73.3,113.8z M81.9,130.5l0,1.2l-5.4,0.2c-0.9,0-1.7-0.1-2.2-0.2c-0.6-0.2-1-0.6-1.4-1.1c-0.4-0.5-0.6-1.3-0.6-2.2
	c0-0.9,0.1-1.6,0.4-2.2c0.3-0.6,0.7-1,1.3-1.2c0.6-0.3,1.3-0.4,2.3-0.4l5.4-0.2l0,1.2l-5.4,0.2c-0.8,0-1.4,0.1-1.8,0.3
	c-0.4,0.2-0.7,0.4-0.9,0.8c-0.2,0.4-0.3,0.8-0.3,1.3c0,0.9,0.3,1.5,0.7,1.9c0.4,0.4,1.2,0.5,2.4,0.5L81.9,130.5L81.9,130.5z
	 M72.9,134l9.2-1.8l0.2,1.2l-6.2,6.2l7.2-1.4l0.2,1.2l-9.2,1.8l-0.2-1.2l6.2-6.2l-7.2,1.4L72.9,134L72.9,134z M75.1,143.5l8.9-2.7
	l0.4,1.2l-8.9,2.7L75.1,143.5L75.1,143.5z M81.9,151.3l0.3,1.3c-1,0.2-1.9,0.1-2.7-0.3c-0.8-0.4-1.4-1-1.8-1.9
	c-0.4-0.9-0.6-1.7-0.5-2.5c0.1-0.7,0.4-1.4,1-2.1c0.6-0.6,1.2-1.1,2-1.5c0.9-0.4,1.7-0.6,2.5-0.6c0.8,0,1.5,0.3,2.2,0.7
	c0.6,0.5,1.1,1.1,1.5,1.8c0.4,0.8,0.5,1.7,0.4,2.4c-0.2,0.8-0.6,1.5-1.2,2.1l-0.8-1c0.5-0.5,0.8-1,0.9-1.5c0.1-0.5,0-1-0.3-1.6
	c-0.3-0.6-0.7-1.1-1.2-1.4c-0.5-0.3-1.1-0.4-1.7-0.3c-0.6,0.1-1.2,0.2-1.7,0.5c-0.7,0.3-1.3,0.7-1.7,1.2c-0.4,0.5-0.7,1-0.7,1.5
	c-0.1,0.6,0,1.1,0.3,1.6c0.3,0.6,0.7,1.1,1.3,1.3C80.4,151.5,81.1,151.5,81.9,151.3L81.9,151.3z M80.3,155.4l8.2-4.5L89,152
	l-8.2,4.5L80.3,155.4L80.3,155.4z M88.8,150.3l2-0.1l0.7,1.3l-2.2-0.4L88.8,150.3L88.8,150.3z M82.1,158.3l7.6-5.4l2.1,2.9
	c0.4,0.5,0.6,0.9,0.8,1.2c0.2,0.4,0.3,0.8,0.3,1.2c0,0.4-0.1,0.8-0.3,1.1c-0.2,0.4-0.5,0.7-0.9,1c-0.6,0.5-1.3,0.6-2.1,0.6
	c-0.7-0.1-1.5-0.7-2.3-1.7l-1.4-1.9l-3.1,2.2L82.1,158.3L82.1,158.3z M86.8,156.4l1.4,2c0.5,0.6,0.9,1,1.4,1.1
	c0.4,0.1,0.9,0,1.3-0.3c0.3-0.2,0.5-0.5,0.6-0.8c0.1-0.3,0.1-0.6,0-1c-0.1-0.2-0.3-0.5-0.6-1l-1.4-1.9L86.8,156.4L86.8,156.4z
	 M87.5,165.4l6.9-6.3l0.8,0.9l-6.9,6.3L87.5,165.4L87.5,165.4z M92.4,164.3c1-1.2,2.1-1.8,3.3-1.9c1.2-0.1,2.3,0.2,3.3,1.1
	c0.7,0.6,1.1,1.2,1.4,2c0.3,0.8,0.3,1.5,0.1,2.3c-0.2,0.8-0.6,1.5-1.2,2.3c-0.6,0.7-1.3,1.2-2.1,1.6c-0.8,0.3-1.6,0.4-2.3,0.2
	c-0.8-0.2-1.5-0.5-2.1-1c-0.7-0.6-1.1-1.2-1.4-2c-0.2-0.8-0.3-1.6-0.1-2.3C91.5,165.6,91.9,164.9,92.4,164.3L92.4,164.3z
	 M93.4,165.2c-0.7,0.9-1.1,1.7-1,2.6c0,0.9,0.4,1.6,1.1,2.2c0.7,0.6,1.5,0.9,2.4,0.8c0.9-0.1,1.7-0.6,2.5-1.5c0.5-0.6,0.8-1.2,1-1.8
	c0.2-0.6,0.2-1.2,0-1.7c-0.2-0.6-0.5-1-1-1.4c-0.7-0.6-1.4-0.8-2.3-0.8C95.2,163.5,94.3,164.1,93.4,165.2L93.4,165.2z M100.3,176.7
	l4.8-8l2.8,1.6c0.6,0.4,1.1,0.7,1.4,1c0.4,0.4,0.7,0.8,0.8,1.3c0.2,0.6,0.3,1.3,0.1,1.9c-0.1,0.7-0.4,1.4-0.8,2.1
	c-0.4,0.6-0.8,1.1-1.2,1.5c-0.4,0.4-0.8,0.7-1.2,0.8c-0.4,0.2-0.8,0.3-1.2,0.3c-0.4,0-0.8,0-1.2-0.2c-0.4-0.1-0.9-0.3-1.4-0.6
	L100.3,176.7L100.3,176.7z M101.9,176.4l1.7,1c0.5,0.3,1,0.5,1.3,0.6c0.4,0.1,0.7,0.1,1,0c0.4-0.1,0.8-0.3,1.2-0.7
	c0.4-0.3,0.8-0.8,1.1-1.4c0.5-0.8,0.7-1.6,0.7-2.2c0-0.6-0.2-1.1-0.5-1.5c-0.2-0.3-0.6-0.6-1.3-1l-1.7-1L101.9,176.4L101.9,176.4z
	 M108.5,181.5l4.3-8.3l6,3.1l-0.5,1l-4.9-2.6l-1.3,2.5l4.6,2.4l-0.5,1l-4.6-2.4l-1.5,2.8l5.1,2.7l-0.5,1L108.5,181.5L108.5,181.5z
	 M127.1,83l-3.5-3.1c0,0,1.6-1.2,2.9-0.6c1.3,0.6,0.6,3.3,0.6,3.3L127.1,83L127.1,83z M136.6,67.6l4.8,3.7l-0.2,0.2l2.9,2.6l2.2,0.2
	l-0.1,4.5c0,0-3.1-0.8-2.8-4.1c0,0-1.5,0.5-2.6-0.7c-1.1-1.1-0.4-2.1-0.4-2.1s-3,1.1-3.5-0.8c-0.5-1.9-0.1-3.3-0.1-3.3V67.6
	L136.6,67.6z M124.8,74.2l-1.4,3.9c0,0,3.1-0.5,3.5-1.5C127.3,75.6,124.8,74.2,124.8,74.2L124.8,74.2z M132,76.7
	c0,0,0.3,3.8,0.1,3.8c-0.3,0-4.6-1-3.9-2.2C128.8,77.1,132,76.7,132,76.7L132,76.7z M130.7,73.4c0,0,1.5-2,3.2-1.6
	c1.7,0.4,0.4,3.8,0.4,3.8L130.7,73.4L130.7,73.4z M128.9,67.6l6.1-0.3c0,0-0.5,3.4-2,3.5C131.5,71,128.9,67.6,128.9,67.6L128.9,67.6
	z M124.3,73l4.5-4.5c0,0,2.2,3,1.2,5C129,75.7,124.3,73,124.3,73L124.3,73z M107.2,59.8l9.9-12.4h69l10.1,12.4
	c0,0-10.6,10.6-4.3,28.1c0,0,3.8,9.7,5.5,13.2c1.7,3.5,5,13.9,5.1,17.5l-21.7-0.2l-2.7,3.4l-8.8-0.1c0,0,0-0.9-0.5-1.6l26-12.5
	l-1.7-4.9l-25,15.7l-1.6-2.7l21.3-17.8l-2.6-4.3l-20.9,20.4l-1.6-1.4l17-24l-3.7-2.8l-15.6,25.4l-1.6-0.9l11.7-26.9l-4.5-2.3
	l-9.2,28.5c0,0-1.3-0.5-3.7-0.6l3.5-31.2l-5.3,0.1l-0.4,31.1c0,0-1.9,0.1-2.9,0.1c-1,0-5.5-21.7-5.5-21.7l5-0.2c0,0-0.8-3.1-2.8-3.7
	c-1.9-0.5-2.6,2.4-2.6,2.4l-0.8-3.2c0,0,2.2-2.1,2.6-2.3c0.4-0.3,1,1.1,1.4,1.7c0.4,0.6,1.5,1.3,1.5,1.3l1.9-4.2c0,0-1.8-0.1-3-0.1
	c-1.1,0-1.1,0.8-1.1,0.8s-1.5-0.4-2.4-0.5c-0.9-0.1-1.8-0.2-1.8-0.2l-0.4-1.1c0,0,0.9-1.1,0-2.3c-0.9-1.2-2.8-0.8-3.6,0.1
	c-0.9,0.9-0.5,2.6-0.2,3.7l-2.8,4.6c0,0-0.1-2.1-1.6-2.4c-1.6-0.3-3.2,2.6-3.2,2.6l4.6,0.9l-2.3,4.1l-4.2-6.3l-3.6,2.3l6.1,8.3
	c0,0-2,4.6-2.2,6.4l-9.3-9.1l-2.9,3.5l11,8.7l-1.8,6.8l-4.1-3c0,0,1.6-0.9,1.8-1.4c0,0,1.1,0.1,1.1-0.3c-0.1-0.4-0.1-0.8-0.9-0.8
	c-0.8,0-1,0.3-1.7-0.8c-0.7-1-1.8-1-2.6-0.8c-0.8,0.2-1.3,1.3-1.3,1.3l-6.3-4.2l-2.4,3l9.3,5.7c0,0,0.4,2.6,0.6,3.5
	c0.3,0.8,0.6,1.9,0.3,2.2c-0.3,0.3-0.8,0.1-0.8,0.1s-1.1-3.8-3.5-4.5c-2.4-0.7-4.9-0.1-6.8,1.2c-1.9,1.4-3.1,2.7-3.1,2.7
	s-1-0.6-1.7-0.4c-0.7,0.2,5.3-15.4,8.4-21.3c3.1-5.9,4.6-18.4,1.5-24.8C108.6,60.9,107.2,59.8,107.2,59.8L107.2,59.8z M140.7,145.7
	l12.4-17.9l7.3,0.2l4-4.8l14.6-0.1l2.4-3l21.1-0.2c0,0,0.6,6.7-0.1,9.9l-2.9,0.3l1.1,1.5l-5.8,5.1l-6.3-0.2l2.2,3.2l-5.6,6.2
	L140.7,145.7L140.7,145.7z M117.7,105.1c0,0-0.1-0.6,0.2-0.8c0.3-0.2,0.9-0.1,1.1,0c0.1,0.1,0.2,0.7-0.2,0.8
	C118.3,105.2,117.8,105.4,117.7,105.1L117.7,105.1z M144.6,120.4c0,0,0.5-0.5,0.9-0.1c0.4,0.4,1,0.9,1.1,0.5
	c0.1-0.4-1.1-1.7-2.1-1.9c-1.1-0.1-1.9,0.5-2.4,0.8c-0.5,0.3,0.6,0.4,1.1,0.5c0.5,0.1,0.4,0.6,0.8,0.8
	C144.5,121.1,144.6,120.4,144.6,120.4L144.6,120.4z M142,116.6c0,0,2.6-0.3,3.6,0.2c0.9,0.5,2.5,1.8,2.8,0.9
	c0.4-0.8-1.3-1.9-2.4-2.2c-1.2-0.3-3.6,0-4.1,0.3c-0.6,0.3-1.4,0.9-1,0.9C141.2,116.8,142,116.6,142,116.6L142,116.6z M157.8,115.9
	c0,0-0.1,0-0.2,0c-0.5,0.1-1.8,0.4-2.1,1c-0.4,0.7,0.3,1.7,0.8,1.4c0.5-0.3,1.6-1.4,3.1-1.5c1.5-0.1,2.4-0.4,2-0.6
	C161,116.1,158.4,115.7,157.8,115.9L157.8,115.9z M155.3,121c0,0,1.5-1.6,3.1-1.8c1.6-0.1,1.8,0.2,2.5,0.5c0.7,0.3,0.6,1.1,0.4,1.1
	c-0.2,0.1-0.6-0.1-0.9-0.3c-0.2-0.2-0.9-0.2-1.2,0c-0.3,0.2-0.5,0.8-1.1,0.5c-0.5-0.2-0.5-0.3-1.4-0.2
	C155.8,120.8,155.3,121,155.3,121L155.3,121z M121.4,122.1c0,0-0.3,4.1-0.3,5.3l-4.2-0.1v-4.2c0,0,1.5-0.5,1.7-1L121.4,122.1
	L121.4,122.1z M119.9,111.2c0,0,0.1,2.3,0.6,3.9c0.5,1.6,1,3.8,1,3.8l0.8,0.1l0.6-6L119.9,111.2L119.9,111.2z M113.1,127.4l2.7-0.2
	c0,0-0.1-1.6-0.8-2.3c-0.7-0.8-0.9-1.6-1.5-1.2C112.9,124.1,113.1,127.4,113.1,127.4L113.1,127.4z M100.8,118.5h0.4
	c0,0,0.6,3.1,2.4,2.5c1.8-0.6,2.9-1,3.2-0.8c0.4,0.3,0.3,1.7,1.2,1.7c0.9,0,1.8,0.5,2.3,1.5c0.5,1,0.8,1.4,1.4,1.9
	c0.6,0.6,0.1,2,0.1,2l-11.3-0.1L100.8,118.5L100.8,118.5z M129.1,102.3l1.4-6.3l11.3,14.9c0,0-2,1.1-2.3,1.7L129.1,102.3
	L129.1,102.3z M135,117.4c0,0,2.4-3.2,3.3-3.6l-10-8.2l-0.6,6.6L135,117.4L135,117.4z M133.8,119.4c0,0-0.9,2.3-0.8,2.9l-6.2-1.8
	l0.1-5.1L133.8,119.4L133.8,119.4z M126.8,122.8l-0.1,4.7l5.6-0.2l0.1-3.2L126.8,122.8L126.8,122.8z M144.3,110c0,0,1.5-0.6,2.2-0.4
	l-9.8-28.3l-4.6,10.2L144.3,110L144.3,110z"/>
<path class="st2" d="M28.2,244c0.7,0,1.2-0.2,1.5-0.5c0.4-0.3,0.6-0.7,0.6-1.3v0c0-0.6-0.2-1-0.6-1.3c-0.4-0.3-0.9-0.4-1.6-0.4h-1.7
	v3.5H28.2L28.2,244z M22.8,237.4h5.7c0.8,0,1.6,0.1,2.3,0.3c0.7,0.2,1.3,0.5,1.7,0.9c0.5,0.4,0.8,0.9,1.1,1.5s0.4,1.2,0.4,2v0
	c0,0.8-0.1,1.5-0.4,2.1c-0.3,0.6-0.7,1.1-1.2,1.5c-0.5,0.4-1.1,0.7-1.8,0.9c-0.7,0.2-1.5,0.3-2.3,0.3h-1.8v3.8h-3.7V237.4
	L22.8,237.4z M40.8,243.8c0.6,0,1.1-0.1,1.5-0.4s0.5-0.7,0.5-1.1v0c0-0.5-0.2-0.9-0.5-1.2c-0.4-0.3-0.8-0.4-1.5-0.4h-2.4v3.2H40.8
	L40.8,243.8z M34.7,237.4H41c1,0,1.9,0.1,2.6,0.4c0.7,0.3,1.3,0.6,1.7,1.1c0.8,0.8,1.2,1.8,1.2,3.1v0c0,1-0.2,1.9-0.7,2.5
	c-0.5,0.7-1.2,1.2-2,1.5l3.2,4.6h-4.2l-2.7-4h0h-1.6v4h-3.7V237.4L34.7,237.4z M47.5,237.4h10.6v3.1h-7v2h6.4v2.9h-6.4v2.1h7.1v3.1
	H47.5V237.4L47.5,237.4z M59.2,237.4h10.6v3.2h-6.9v2.2h6.3v3.1h-6.3v4.7h-3.7V237.4L59.2,237.4z M70.6,237.4h10.6v3.1h-7v2h6.4v2.9
	h-6.4v2.1h7.1v3.1H70.6V237.4L70.6,237.4z M82.5,237.4h3.7v13.2h-3.7V237.4L82.5,237.4z M91,240.7h-4v-3.2h11.6v3.2h-4v10H91V240.7
	L91,240.7z M105.3,250.9c-0.9,0-1.8-0.1-2.6-0.4c-0.8-0.2-1.4-0.6-1.9-1.1c-0.5-0.5-0.9-1.1-1.2-1.9c-0.3-0.8-0.4-1.7-0.4-2.7v-7.4
	h3.7v7.4c0,1,0.2,1.7,0.7,2.1c0.4,0.5,1,0.7,1.8,0.7c0.7,0,1.3-0.2,1.8-0.7c0.4-0.4,0.7-1.1,0.7-2.1v-7.5h3.7v7.3
	c0,1.1-0.1,2-0.4,2.8c-0.3,0.8-0.7,1.4-1.2,1.9c-0.5,0.5-1.2,0.9-1.9,1.1C107.1,250.8,106.3,250.9,105.3,250.9L105.3,250.9z
	 M118.9,243.8c0.6,0,1.1-0.1,1.5-0.4s0.5-0.7,0.5-1.1v0c0-0.5-0.2-0.9-0.5-1.2c-0.4-0.3-0.8-0.4-1.5-0.4h-2.4v3.2H118.9L118.9,243.8
	z M112.9,237.4h6.3c1,0,1.9,0.1,2.6,0.4c0.7,0.3,1.3,0.6,1.7,1.1c0.8,0.8,1.2,1.8,1.2,3.1v0c0,1-0.2,1.9-0.7,2.5
	c-0.5,0.7-1.2,1.2-2,1.5l3.2,4.6h-4.2l-2.7-4h0h-1.6v4h-3.7V237.4L112.9,237.4z M133.4,245.5l-1.5-3.8l-1.5,3.8H133.4L133.4,245.5z
	 M130.2,237.4h3.5l5.6,13.3h-3.9l-1-2.4h-5.1l-0.9,2.4h-3.9L130.2,237.4L130.2,237.4z M145,237.4h3.9l3.2,5.1l3.2-5.1h3.9v13.2h-3.7
	v-7.6l-3.4,5.2H152l-3.4-5.1v7.6H145V237.4L145,237.4z M166.6,250.9c-0.9,0-1.8-0.1-2.6-0.4c-0.8-0.2-1.4-0.6-1.9-1.1
	s-0.9-1.1-1.2-1.9c-0.3-0.8-0.4-1.7-0.4-2.7v-7.4h3.7v7.4c0,1,0.2,1.7,0.7,2.1c0.4,0.5,1,0.7,1.8,0.7c0.7,0,1.3-0.2,1.8-0.7
	c0.4-0.4,0.7-1.1,0.7-2.1v-7.5h3.7v7.3c0,1.1-0.1,2-0.4,2.8c-0.3,0.8-0.7,1.4-1.2,1.9c-0.5,0.5-1.2,0.9-1.9,1.1
	C168.4,250.8,167.5,250.9,166.6,250.9L166.6,250.9z M174.1,237.4h3.4l5.5,7v-7h3.6v13.2h-3.2l-5.7-7.3v7.3h-3.6V237.4L174.1,237.4z
	 M188.2,237.4h3.7v13.2h-3.7V237.4L188.2,237.4z M199.8,251c-0.9,0-1.8-0.2-2.7-0.5c-0.8-0.3-1.6-0.8-2.2-1.4
	c-0.6-0.6-1.1-1.3-1.5-2.2c-0.4-0.8-0.5-1.7-0.5-2.7v0c0-1,0.2-1.9,0.5-2.7c0.4-0.8,0.8-1.6,1.5-2.2c0.6-0.6,1.4-1.1,2.2-1.5
	c0.9-0.4,1.8-0.5,2.8-0.5c0.7,0,1.3,0.1,1.9,0.2c0.6,0.1,1.1,0.3,1.5,0.6c0.5,0.2,0.9,0.5,1.2,0.9c0.4,0.3,0.7,0.7,1,1.1l-2.8,2.1
	c-0.4-0.5-0.8-0.9-1.2-1.1c-0.5-0.3-1-0.4-1.6-0.4c-0.5,0-0.9,0.1-1.3,0.3c-0.4,0.2-0.7,0.4-1,0.7c-0.3,0.3-0.5,0.7-0.7,1.1
	c-0.2,0.4-0.2,0.9-0.2,1.4v0c0,0.5,0.1,1,0.2,1.4c0.2,0.4,0.4,0.8,0.7,1.1c0.3,0.3,0.6,0.6,1,0.7c0.4,0.2,0.8,0.3,1.3,0.3
	c0.3,0,0.7,0,0.9-0.1c0.3-0.1,0.5-0.2,0.8-0.3c0.2-0.1,0.5-0.3,0.7-0.5c0.2-0.2,0.4-0.4,0.6-0.7l2.8,2c-0.3,0.4-0.7,0.8-1,1.2
	c-0.4,0.4-0.8,0.7-1.3,0.9c-0.5,0.3-1,0.5-1.6,0.6C201.2,250.9,200.5,251,199.8,251L199.8,251z M206.4,237.4h3.7v13.2h-3.7V237.4
	L206.4,237.4z M217.1,244c0.7,0,1.2-0.2,1.5-0.5c0.4-0.3,0.6-0.7,0.6-1.3v0c0-0.6-0.2-1-0.6-1.3c-0.4-0.3-0.9-0.4-1.6-0.4h-1.7v3.5
	H217.1L217.1,244z M211.7,237.4h5.7c0.8,0,1.6,0.1,2.3,0.3c0.7,0.2,1.3,0.5,1.7,0.9c0.5,0.4,0.8,0.9,1.1,1.5c0.3,0.6,0.4,1.2,0.4,2
	v0c0,0.8-0.1,1.5-0.4,2.1c-0.3,0.6-0.7,1.1-1.2,1.5c-0.5,0.4-1.1,0.7-1.8,0.9c-0.7,0.2-1.5,0.3-2.3,0.3h-1.8v3.8h-3.7V237.4
	L211.7,237.4z M231.4,245.5l-1.5-3.8l-1.5,3.8H231.4L231.4,245.5z M228.2,237.4h3.5l5.6,13.3h-3.9l-1-2.4h-5.1l-0.9,2.4h-3.9
	L228.2,237.4L228.2,237.4z M237.8,237.4h3.7v10h6.4v3.2h-10.1V237.4L237.8,237.4z M259,247.4c1.1,0,2-0.3,2.7-0.9
	c0.7-0.6,1-1.4,1-2.5v0c0-1.1-0.3-1.9-1-2.5c-0.7-0.6-1.6-0.9-2.7-0.9h-1.5v6.7H259L259,247.4z M253.8,237.4h5.1
	c1.2,0,2.2,0.2,3.2,0.5c0.9,0.3,1.7,0.8,2.3,1.4c0.6,0.6,1.1,1.3,1.5,2.1c0.3,0.8,0.5,1.7,0.5,2.6v0c0,1-0.2,1.8-0.5,2.7
	c-0.3,0.8-0.8,1.5-1.5,2.1c-0.6,0.6-1.4,1.1-2.4,1.4c-0.9,0.3-2,0.5-3.2,0.5h-5V237.4L253.8,237.4z M267.4,237.4h10.6v3.1h-7v2h6.4
	v2.9H271v2.1h7.1v3.1h-10.7V237.4L267.4,237.4z"/>
<path class="st2" d="M23.2,263.2h10.4l8.5,13.8l8.5-13.8H61v35.5h-9.8v-20.4l-9.1,13.9h-0.2l-9-13.8v20.3h-9.7V263.2L23.2,263.2z
	 M83,290.5c1.4,0,2.6-0.3,3.7-0.8c1.1-0.5,2.1-1.2,2.9-2.1c0.8-0.9,1.4-1.9,1.8-3c0.4-1.2,0.7-2.4,0.7-3.7v-0.1
	c0-1.3-0.2-2.5-0.7-3.7c-0.4-1.2-1.1-2.2-1.9-3c-0.8-0.9-1.8-1.6-2.9-2.1c-1.1-0.5-2.4-0.8-3.7-0.8c-1.4,0-2.6,0.3-3.7,0.8
	c-1.1,0.5-2.1,1.2-2.9,2.1c-0.8,0.9-1.4,1.9-1.8,3c-0.4,1.2-0.6,2.4-0.6,3.7v0.1c0,1.3,0.2,2.5,0.7,3.7c0.4,1.2,1.1,2.2,1.9,3
	c0.8,0.9,1.8,1.6,2.9,2.1C80.4,290.3,81.6,290.5,83,290.5L83,290.5z M82.9,299.4c-2.7,0-5.3-0.5-7.6-1.4c-2.3-1-4.3-2.3-6-3.9
	c-1.7-1.7-3-3.6-4-5.8c-1-2.2-1.4-4.6-1.4-7.2v-0.1c0-2.5,0.5-4.9,1.4-7.2c1-2.3,2.3-4.2,4-5.9c1.7-1.7,3.8-3,6.1-4
	c2.3-1,4.9-1.4,7.6-1.4c2.7,0,5.3,0.5,7.6,1.4c2.3,1,4.3,2.3,6,3.9c1.7,1.7,3,3.6,4,5.8c1,2.2,1.4,4.6,1.4,7.2v0.1
	c0,2.5-0.5,4.9-1.4,7.2c-1,2.3-2.3,4.2-4,5.9c-1.7,1.7-3.8,3-6.1,4C88.2,298.9,85.6,299.4,82.9,299.4L82.9,299.4z M118.9,299.3
	c-3.2,0-6.2-0.5-9.1-1.5c-2.9-1-5.4-2.5-7.6-4.4l5.5-6.6c3.6,2.8,7.4,4.3,11.5,4.3c1.3,0,2.3-0.2,3-0.6c0.7-0.4,1-1,1-1.8v-0.1
	c0-0.4-0.1-0.7-0.3-1c-0.2-0.3-0.5-0.6-0.9-0.8c-0.5-0.3-1.1-0.5-1.8-0.8c-0.8-0.3-1.8-0.5-3-0.8c-1.9-0.4-3.7-0.9-5.3-1.4
	c-1.6-0.5-3-1.2-4.2-2c-1.2-0.8-2.1-1.9-2.8-3.1c-0.7-1.2-1-2.8-1-4.6v-0.1c0-1.7,0.3-3.2,0.9-4.6c0.6-1.4,1.5-2.6,2.7-3.6
	c1.2-1,2.6-1.8,4.3-2.4c1.7-0.6,3.6-0.8,5.7-0.8c3,0,5.8,0.4,8.1,1.2c2.4,0.8,4.5,2,6.5,3.5l-4.9,7c-1.6-1.2-3.3-2-5-2.6
	c-1.7-0.6-3.4-0.9-5-0.9c-1.2,0-2.1,0.2-2.7,0.7c-0.6,0.4-0.9,1-0.9,1.6v0.1c0,0.4,0.1,0.8,0.3,1.1c0.2,0.3,0.5,0.6,1,0.8
	c0.5,0.3,1.1,0.5,1.9,0.8c0.8,0.3,1.8,0.5,3,0.8c2,0.4,3.9,1,5.5,1.5c1.6,0.6,3,1.3,4.2,2.2c1.2,0.8,2,1.9,2.6,3.1
	c0.6,1.2,0.9,2.6,0.9,4.3v0.1c0,1.8-0.3,3.5-1,4.9c-0.7,1.4-1.7,2.6-2.9,3.6c-1.3,1-2.8,1.8-4.5,2.3
	C123,299.1,121.1,299.3,118.9,299.3L118.9,299.3z M149.7,299.3c-3.2,0-6.2-0.5-9.1-1.5c-2.9-1-5.4-2.5-7.6-4.4l5.5-6.6
	c3.6,2.8,7.4,4.3,11.5,4.3c1.3,0,2.3-0.2,3-0.6c0.7-0.4,1-1,1-1.8v-0.1c0-0.4-0.1-0.7-0.3-1c-0.2-0.3-0.5-0.6-0.9-0.8
	c-0.5-0.3-1.1-0.5-1.8-0.8c-0.8-0.3-1.8-0.5-3-0.8c-1.9-0.4-3.7-0.9-5.3-1.4c-1.6-0.5-3-1.2-4.2-2c-1.2-0.8-2.1-1.9-2.8-3.1
	c-0.7-1.2-1-2.8-1-4.6v-0.1c0-1.7,0.3-3.2,0.9-4.6c0.6-1.4,1.5-2.6,2.7-3.6c1.2-1,2.6-1.8,4.3-2.4c1.7-0.6,3.6-0.8,5.7-0.8
	c3,0,5.8,0.4,8.1,1.2c2.4,0.8,4.5,2,6.5,3.5l-4.9,7c-1.6-1.2-3.3-2-5-2.6c-1.7-0.6-3.4-0.9-5-0.9c-1.2,0-2.1,0.2-2.7,0.7
	c-0.6,0.4-0.9,1-0.9,1.6v0.1c0,0.4,0.1,0.8,0.3,1.1c0.2,0.3,0.5,0.6,1,0.8c0.5,0.3,1.1,0.5,1.9,0.8c0.8,0.3,1.8,0.5,3,0.8
	c2,0.4,3.9,1,5.5,1.5c1.6,0.6,3,1.3,4.2,2.2c1.2,0.8,2,1.9,2.6,3.1c0.6,1.2,0.9,2.6,0.9,4.3v0.1c0,1.8-0.3,3.5-1,4.9
	c-0.7,1.4-1.7,2.6-2.9,3.6c-1.3,1-2.8,1.8-4.5,2.3C153.8,299.1,151.9,299.3,149.7,299.3L149.7,299.3z M184.5,290.5
	c1.4,0,2.6-0.3,3.7-0.8c1.1-0.5,2.1-1.2,2.9-2.1c0.8-0.9,1.4-1.9,1.8-3c0.4-1.2,0.7-2.4,0.7-3.7v-0.1c0-1.3-0.2-2.5-0.7-3.7
	c-0.4-1.2-1.1-2.2-1.9-3c-0.8-0.9-1.8-1.6-2.9-2.1c-1.1-0.5-2.4-0.8-3.7-0.8c-1.4,0-2.6,0.3-3.7,0.8c-1.1,0.5-2.1,1.2-2.9,2.1
	c-0.8,0.9-1.4,1.9-1.8,3c-0.4,1.2-0.6,2.4-0.6,3.7v0.1c0,1.3,0.2,2.5,0.7,3.7c0.4,1.2,1.1,2.2,1.9,3c0.8,0.9,1.8,1.6,2.9,2.1
	C181.9,290.3,183.2,290.5,184.5,290.5L184.5,290.5z M184.4,299.4c-2.7,0-5.3-0.5-7.6-1.4c-2.3-1-4.3-2.3-6-3.9c-1.7-1.7-3-3.6-4-5.8
	c-1-2.2-1.4-4.6-1.4-7.2v-0.1c0-2.5,0.5-4.9,1.4-7.2c1-2.3,2.3-4.2,4-5.9c1.7-1.7,3.8-3,6.1-4c2.3-1,4.9-1.4,7.6-1.4
	c2.7,0,5.3,0.5,7.6,1.4c2.3,1,4.3,2.3,6,3.9c1.7,1.7,3,3.6,4,5.8c1,2.2,1.4,4.6,1.4,7.2v0.1c0,2.5-0.5,4.9-1.4,7.2
	c-1,2.3-2.3,4.2-4,5.9c-1.7,1.7-3.8,3-6.1,4C189.7,298.9,187.2,299.4,184.4,299.4L184.4,299.4z M222.8,280.2c1.7,0,3-0.4,3.9-1.1
	s1.4-1.8,1.4-3.1v-0.1c0-1.4-0.5-2.5-1.4-3.2c-0.9-0.7-2.3-1-3.9-1h-6.4v8.5H222.8L222.8,280.2z M206.5,263.2h16.8
	c2.7,0,5.1,0.3,7,1c1.9,0.7,3.4,1.6,4.6,2.8c2.1,2,3.1,4.8,3.1,8.3v0.1c0,2.7-0.7,5-2,6.8c-1.3,1.8-3.1,3.2-5.3,4.1l8.5,12.4h-11.4
	l-7.2-10.8h-0.1h-4.2v10.8h-9.9V263.2L206.5,263.2z M260.5,251.4l9,2.9l-7.5,6.5h-6.8L260.5,251.4L260.5,251.4z M258.7,290.5
	c1.4,0,2.6-0.3,3.7-0.8c1.1-0.5,2.1-1.2,2.9-2.1c0.8-0.9,1.4-1.9,1.8-3c0.4-1.2,0.7-2.4,0.7-3.7v-0.1c0-1.3-0.2-2.5-0.7-3.7
	c-0.4-1.2-1.1-2.2-1.9-3c-0.8-0.9-1.8-1.6-2.9-2.1c-1.1-0.5-2.4-0.8-3.7-0.8c-1.4,0-2.6,0.3-3.7,0.8c-1.1,0.5-2.1,1.2-2.9,2.1
	c-0.8,0.9-1.4,1.9-1.8,3c-0.4,1.2-0.6,2.4-0.6,3.7v0.1c0,1.3,0.2,2.5,0.7,3.7c0.4,1.2,1.1,2.2,1.9,3c0.8,0.9,1.8,1.6,2.9,2.1
	C256.1,290.3,257.3,290.5,258.7,290.5L258.7,290.5z M258.6,299.4c-2.7,0-5.3-0.5-7.6-1.4c-2.3-1-4.3-2.3-6-3.9c-1.7-1.7-3-3.6-4-5.8
	c-1-2.2-1.4-4.6-1.4-7.2v-0.1c0-2.5,0.5-4.9,1.4-7.2c1-2.3,2.3-4.2,4-5.9c1.7-1.7,3.8-3,6.1-4c2.3-1,4.9-1.4,7.6-1.4
	c2.7,0,5.3,0.5,7.6,1.4c2.3,1,4.3,2.3,6,3.9c1.7,1.7,3,3.6,4,5.8c1,2.2,1.4,4.6,1.4,7.2v0.1c0,2.5-0.5,4.9-1.4,7.2
	c-1,2.3-2.3,4.2-4,5.9s-3.8,3-6.1,4C263.9,298.9,261.3,299.4,258.6,299.4L258.6,299.4z"/>
</svg>
