<?xml version="1.0" encoding="utf-8"?>
<!-- Generator: Adobe Illustrator 19.0.0, SVG Export Plug-In . SVG Version: 6.00 Build 0)  -->
<svg version="1.1" id="Camada_1" xmlns="http://www.w3.org/2000/svg" xmlns:xlink="http://www.w3.org/1999/xlink" x="0px" y="0px"
	 viewBox="0 0 568 615" style="enable-background:new 0 0 568 615;" xml:space="preserve">
<style type="text/css">
	.st0{fill-rule:evenodd;clip-rule:evenodd;fill:#213966;}
</style>
<path class="st0" d="M130.6,69.2l37.5-46.3h241.5l36.8,48.5c0,0-41.9,43-8.5,111.4c33.5,68.4,38.2,124.2,20.6,156.2
	c-17.6,32-33.4,56.2-144.5,86.7c0,0-13.2,4.4-24.6,19.5c0,0-12.1-16.2-26.5-21c-14.3-4.8-62.9-15.8-87.1-29.8
	c-24.3-14-64.3-37.5-66.9-106.6c-2.6-69.1,47.8-108.1,44.5-165C153.4,122.8,153,97.5,130.6,69.2L130.6,69.2z M306.3,102.9l2.2-0.3
	c0.3,1.2,0.7,2.1,1.3,2.7c0.6,0.5,1.3,0.8,2.2,0.8c1,0,1.9-0.4,2.6-1.1c0.7-0.7,1-1.6,1-2.6c0-1-0.3-1.8-1-2.5c-0.6-0.6-1.5-1-2.5-1
	c-0.4,0-0.9,0.1-1.5,0.2l0.2-1.9c0.1,0,0.3,0,0.3,0c0.9,0,1.8-0.2,2.5-0.7c0.7-0.5,1.1-1.2,1.1-2.2c0-0.8-0.3-1.5-0.8-2
	c-0.5-0.5-1.2-0.8-2.1-0.8c-0.8,0-1.6,0.3-2.1,0.8c-0.6,0.5-0.9,1.3-1.1,2.4l-2.2-0.4c0.3-1.5,0.9-2.6,1.8-3.4
	c0.9-0.8,2.1-1.2,3.5-1.2c1,0,1.9,0.2,2.7,0.6c0.8,0.4,1.4,1,1.9,1.7c0.4,0.7,0.6,1.5,0.6,2.3c0,0.8-0.2,1.5-0.6,2.1
	c-0.4,0.6-1,1.1-1.8,1.5c1,0.2,1.9,0.7,2.4,1.5c0.6,0.8,0.9,1.7,0.9,2.9c0,1.5-0.6,2.9-1.7,3.9c-1.1,1.1-2.6,1.6-4.3,1.6
	c-1.6,0-2.8-0.5-3.9-1.4C307,105.6,306.5,104.4,306.3,102.9L306.3,102.9z M295.9,98c-0.9-0.3-1.6-0.8-2-1.4
	c-0.4-0.6-0.6-1.3-0.6-2.2c0-1.3,0.5-2.4,1.4-3.2c0.9-0.9,2.2-1.3,3.7-1.3c1.5,0,2.8,0.4,3.7,1.3c0.9,0.9,1.4,2,1.4,3.3
	c0,0.8-0.2,1.5-0.6,2.1c-0.4,0.6-1.1,1.1-2,1.4c1.1,0.4,1.9,0.9,2.5,1.7c0.6,0.8,0.8,1.7,0.8,2.8c0,1.5-0.5,2.8-1.6,3.8
	c-1.1,1-2.5,1.5-4.2,1.5c-1.7,0-3.1-0.5-4.2-1.6c-1.1-1-1.6-2.3-1.6-3.9c0-1.2,0.3-2.1,0.9-2.9C294,98.8,294.8,98.3,295.9,98
	L295.9,98z M295.5,94.3c0,0.8,0.3,1.5,0.8,2.1c0.5,0.5,1.2,0.8,2.1,0.8c0.8,0,1.5-0.3,2.1-0.8c0.5-0.5,0.8-1.2,0.8-1.9
	c0-0.8-0.3-1.5-0.8-2c-0.5-0.5-1.2-0.8-2.1-0.8c-0.8,0-1.5,0.3-2.1,0.8C295.8,92.9,295.5,93.6,295.5,94.3L295.5,94.3z M294.8,102.5
	c0,0.6,0.1,1.2,0.4,1.8c0.3,0.6,0.7,1,1.3,1.3c0.6,0.3,1.2,0.5,1.9,0.5c1,0,1.9-0.3,2.6-1c0.7-0.7,1-1.5,1-2.5c0-1-0.3-1.9-1-2.6
	c-0.7-0.7-1.6-1-2.6-1c-1,0-1.9,0.3-2.5,1C295.1,100.6,294.8,101.5,294.8,102.5L294.8,102.5z M282.2,98c-0.9-0.3-1.6-0.8-2-1.4
	c-0.4-0.6-0.7-1.3-0.7-2.2c0-1.3,0.5-2.4,1.4-3.2c0.9-0.9,2.2-1.3,3.7-1.3c1.5,0,2.8,0.4,3.7,1.3c0.9,0.9,1.4,2,1.4,3.3
	c0,0.8-0.2,1.5-0.6,2.1c-0.4,0.6-1.1,1.1-2,1.4c1.1,0.4,1.9,0.9,2.5,1.7c0.6,0.8,0.8,1.7,0.8,2.8c0,1.5-0.5,2.8-1.6,3.8
	c-1.1,1-2.5,1.5-4.2,1.5c-1.7,0-3.1-0.5-4.2-1.6c-1.1-1-1.6-2.3-1.6-3.9c0-1.2,0.3-2.1,0.9-2.9C280.2,98.8,281.1,98.3,282.2,98
	L282.2,98z M281.7,94.3c0,0.8,0.3,1.5,0.8,2.1c0.5,0.5,1.2,0.8,2.1,0.8c0.8,0,1.5-0.3,2.1-0.8c0.5-0.5,0.8-1.2,0.8-1.9
	c0-0.8-0.3-1.5-0.8-2c-0.5-0.5-1.2-0.8-2.1-0.8c-0.8,0-1.5,0.3-2.1,0.8C282,92.9,281.7,93.6,281.7,94.3L281.7,94.3z M281,102.5
	c0,0.6,0.1,1.2,0.4,1.8c0.3,0.6,0.7,1,1.3,1.3c0.6,0.3,1.2,0.5,1.9,0.5c1,0,1.9-0.3,2.6-1c0.7-0.7,1-1.5,1-2.5c0-1-0.3-1.9-1-2.6
	c-0.7-0.7-1.6-1-2.6-1c-1,0-1.9,0.3-2.5,1C281.3,100.6,281,101.5,281,102.5L281,102.5z M273.2,107.6H271V93.7
	c-0.5,0.5-1.2,1-2.1,1.5c-0.8,0.5-1.6,0.9-2.3,1.1v-2.1c1.2-0.6,2.3-1.3,3.2-2.1c0.9-0.8,1.6-1.6,1.9-2.4h1.4V107.6L273.2,107.6z
	 M398.9,83c2-2.9,4.3-4.6,6.9-5.2c2.7-0.6,5.2,0,7.7,1.6c1.6,1.1,2.8,2.5,3.6,4.1c0.8,1.6,1,3.4,0.8,5.2c-0.3,1.8-1,3.6-2.2,5.4
	c-1.2,1.8-2.6,3.1-4.3,4c-1.7,0.9-3.4,1.3-5.2,1.1c-1.8-0.2-3.4-0.8-5-1.8c-1.6-1.1-2.8-2.5-3.6-4.2c-0.8-1.7-1-3.4-0.7-5.2
	C397.2,86.2,397.9,84.5,398.9,83L398.9,83z M401.3,84.6c-1.4,2.1-2,4.1-1.7,6.1c0.3,2,1.3,3.5,3,4.7c1.7,1.2,3.6,1.5,5.5,1.1
	c1.9-0.5,3.7-1.8,5.2-4c1-1.4,1.6-2.8,1.8-4.2c0.2-1.4,0.1-2.7-0.4-3.9c-0.5-1.2-1.4-2.2-2.5-3c-1.6-1.1-3.4-1.5-5.3-1.2
	C404.9,80.5,403.1,82,401.3,84.6L401.3,84.6z M376,80.7l10.9-18l8,4.8c1.6,1,2.7,1.9,3.4,2.7c0.6,0.8,1,1.8,1,2.9
	c0,1.1-0.3,2.2-0.9,3.2c-0.8,1.3-1.8,2.1-3.2,2.5c-1.4,0.4-3,0.2-4.8-0.7c0.4,0.7,0.7,1.3,0.9,1.8c0.3,1.1,0.5,2.3,0.5,3.6l0.1,6.8
	l-3-1.8l-0.1-5.2c0-1.5-0.1-2.7-0.2-3.5c-0.1-0.8-0.3-1.5-0.5-1.9c-0.2-0.4-0.5-0.8-0.8-1.1c-0.2-0.2-0.7-0.5-1.3-0.9l-2.8-1.7
	l-4.9,8L376,80.7L376,80.7z M384.5,72.1l5.1,3.1c1.1,0.7,2,1.1,2.8,1.2c0.7,0.1,1.4,0.1,2-0.2c0.6-0.3,1.1-0.7,1.5-1.3
	c0.5-0.9,0.6-1.7,0.4-2.7c-0.3-0.9-1.1-1.8-2.4-2.6l-5.7-3.5L384.5,72.1L384.5,72.1z M358.1,72.1l8.9-19.1l7.2,3.4
	c1.5,0.7,2.5,1.4,3.2,2.2c0.7,0.8,1.1,1.7,1.2,2.8c0.1,1,0,2-0.4,2.9c-0.4,0.8-1,1.5-1.7,2c-0.8,0.5-1.7,0.8-2.8,0.8
	c1,0.9,1.6,1.9,1.8,3c0.2,1.1,0.1,2.2-0.4,3.3c-0.4,0.9-1,1.6-1.7,2.2c-0.7,0.6-1.5,1-2.2,1.1c-0.7,0.2-1.6,0.1-2.5,0
	c-0.9-0.2-2-0.6-3.2-1.1L358.1,72.1L358.1,72.1z M365.8,62.3l4.1,1.9c1.1,0.5,2,0.8,2.5,0.9c0.7,0.1,1.4,0,1.9-0.3
	c0.5-0.3,1-0.8,1.3-1.4c0.3-0.6,0.4-1.3,0.3-1.9c-0.1-0.6-0.4-1.2-0.8-1.6c-0.5-0.4-1.4-1-2.8-1.6l-3.8-1.8L365.8,62.3L365.8,62.3z
	 M361.7,71.1l4.7,2.2c0.8,0.4,1.4,0.6,1.8,0.7c0.6,0.2,1.2,0.2,1.7,0.2c0.5-0.1,1-0.3,1.5-0.6c0.5-0.3,0.8-0.8,1.1-1.4
	c0.3-0.7,0.4-1.4,0.3-2.1c-0.1-0.7-0.4-1.3-1-1.8c-0.5-0.5-1.4-1.1-2.6-1.6l-4.4-2.1L361.7,71.1L361.7,71.1z M335.2,63.7l6.7-20
	l4,1.3l0,15.7c0,1.5,0,2.6,0,3.3c0.5-0.6,1.2-1.6,2.1-2.8l9.5-12.3l3.5,1.2l-6.7,20l-2.5-0.8l5.6-16.7l-11.4,14.8l-2.4-0.8
	l-0.1-18.9l-5.7,17L335.2,63.7L335.2,63.7z M316.4,59.1l4.3-20.6l14.9,3.1l-0.5,2.4l-12.1-2.5l-1.3,6.3l11.4,2.4l-0.5,2.4l-11.4-2.4
	l-1.5,7l12.6,2.6l-0.5,2.4L316.4,59.1L316.4,59.1z M303.7,57.4l1.5-18.5l-6.9-0.6l0.2-2.5l16.6,1.4l-0.2,2.5l-6.9-0.6l-1.5,18.5
	L303.7,57.4L303.7,57.4z M278.9,56.7l-0.8-21l15.2-0.6l0.1,2.5l-12.4,0.5l0.2,6.5l11.6-0.4l0.1,2.5L281.3,47l0.3,7.2l12.9-0.5
	l0.1,2.5L278.9,56.7L278.9,56.7z M257.5,52.6l2.6-0.6c0.3,1,0.7,1.8,1.3,2.4c0.6,0.6,1.3,1,2.3,1.3c1,0.3,2.1,0.3,3.3,0.1
	c1.1-0.2,2-0.5,2.7-0.9c0.8-0.4,1.3-1,1.6-1.6c0.3-0.6,0.4-1.2,0.3-1.9c-0.1-0.6-0.4-1.2-0.8-1.6c-0.5-0.4-1.1-0.7-2.1-0.9
	c-0.6-0.1-1.9-0.3-3.9-0.4c-2-0.2-3.4-0.4-4.2-0.7c-1.1-0.4-1.9-0.9-2.5-1.6c-0.6-0.7-1-1.5-1.1-2.5c-0.2-1.1,0-2.1,0.4-3.1
	c0.5-1,1.2-1.8,2.3-2.5c1.1-0.7,2.3-1.1,3.7-1.3c1.5-0.2,2.9-0.2,4.2,0.1c1.3,0.3,2.3,0.9,3.1,1.8c0.8,0.9,1.3,1.9,1.5,3.1l-2.6,0.6
	c-0.3-1.3-1-2.2-1.9-2.8c-0.9-0.5-2.2-0.7-3.8-0.4c-1.7,0.3-2.8,0.8-3.5,1.5c-0.7,0.7-0.9,1.5-0.8,2.4c0.1,0.7,0.5,1.3,1.1,1.7
	c0.6,0.4,2.1,0.7,4.4,0.8c2.3,0.2,3.9,0.4,4.8,0.6c1.3,0.4,2.3,0.9,3,1.7c0.7,0.8,1.1,1.7,1.3,2.8c0.2,1.1,0,2.2-0.5,3.3
	c-0.5,1.1-1.3,2-2.4,2.7c-1.1,0.7-2.4,1.2-3.9,1.4c-1.9,0.3-3.5,0.3-4.8-0.1c-1.4-0.4-2.5-1-3.4-2C258.3,55.1,257.8,54,257.5,52.6
	L257.5,52.6z M232.5,66.4l-6.4-20.1l14.5-4.6l0.7,2.4l-11.8,3.7l2,6.2l11.1-3.5l0.7,2.4l-11.1,3.5l2.2,6.8l12.3-3.9l0.7,2.4
	L232.5,66.4L232.5,66.4z M213.2,75.3l-8.9-19.1l6.6-3.1c1.5-0.7,2.7-1.1,3.5-1.3c1.2-0.3,2.4-0.2,3.4,0.1c1.4,0.4,2.7,1.1,3.8,2.2
	c1.1,1.1,2.1,2.5,2.9,4.2c0.7,1.4,1.1,2.8,1.3,4.1c0.2,1.3,0.2,2.4,0,3.4c-0.2,1-0.5,1.8-0.9,2.5c-0.4,0.7-1,1.4-1.8,2
	c-0.8,0.6-1.8,1.2-2.9,1.8L213.2,75.3L213.2,75.3z M214.7,71.9l4.1-1.9c1.3-0.6,2.2-1.2,2.8-1.7c0.6-0.6,1-1.2,1.2-1.8
	c0.3-0.9,0.4-1.9,0.3-3.1c-0.1-1.2-0.5-2.5-1.2-3.9c-0.9-2-2-3.4-3.1-4.2c-1.2-0.8-2.3-1.1-3.4-1c-0.8,0.1-1.9,0.4-3.4,1.1l-4,1.9
	L214.7,71.9L214.7,71.9z M185.8,80.5c-1.4-2-2.4-3.8-2.8-5.4c-0.5-1.5-0.5-2.9-0.2-4.2c0.4-1.2,1.2-2.3,2.4-3.2
	c0.9-0.6,1.9-1,2.8-1.2c1-0.1,1.9,0,2.9,0.4c0.9,0.4,1.9,1,2.9,1.8c1,0.8,2.1,2.1,3.3,3.8c1.4,2,2.4,3.8,2.8,5.3
	c0.5,1.5,0.5,2.9,0.2,4.2c-0.3,1.3-1.2,2.3-2.4,3.2c-1.7,1.2-3.4,1.5-5.2,1C190.2,85.7,188,83.8,185.8,80.5L185.8,80.5z M187.9,79
	c2,2.8,3.6,4.5,5,5c1.3,0.5,2.5,0.4,3.4-0.3c1-0.7,1.5-1.7,1.5-3.1c0-1.4-1-3.5-3-6.3c-2-2.8-3.6-4.5-5-5c-1.3-0.5-2.5-0.4-3.5,0.3
	c-1,0.7-1.5,1.6-1.5,2.9C184.9,74,185.9,76.2,187.9,79L187.9,79z M175.5,95.3l1.7-1.9c1.2,0.9,2.2,1.4,3.2,1.4c1,0,1.8-0.3,2.6-1
	c0.9-0.8,1.4-1.8,1.5-3c0.1-1.2-0.3-2.2-1.1-3.2c-0.8-0.9-1.7-1.4-2.8-1.5c-1.1-0.1-2.1,0.3-3,1c-0.4,0.3-0.8,0.8-1.2,1.4l-1.2-1.9
	c0.1-0.1,0.3-0.2,0.3-0.2c0.8-0.7,1.4-1.6,1.7-2.6c0.3-1,0.1-2-0.7-2.9c-0.6-0.7-1.4-1.1-2.3-1.2c-0.9-0.1-1.7,0.2-2.5,0.9
	c-0.8,0.7-1.2,1.4-1.3,2.4c-0.1,0.9,0.2,1.9,0.9,3l-2.3,1.3c-0.9-1.5-1.2-3-1-4.5c0.2-1.5,1-2.7,2.3-3.8c0.9-0.7,1.8-1.2,2.9-1.5
	c1.1-0.3,2.1-0.2,3,0.1c0.9,0.3,1.7,0.8,2.3,1.6c0.6,0.7,0.9,1.5,1,2.4c0.1,0.9-0.1,1.8-0.5,2.8c1.1-0.6,2.3-0.8,3.4-0.5
	c1.1,0.2,2.1,0.9,3,1.9c1.2,1.4,1.7,3,1.5,4.9c-0.2,1.8-1.1,3.4-2.6,4.8c-1.4,1.2-2.9,1.8-4.6,1.7C178.2,97.1,176.8,96.5,175.5,95.3
	L175.5,95.3z M112.3,70.2l50.5-61.1l251.8-0.5l50.5,63.4c0,0-49.2,26.7-15.6,105.2c0,0,21.6,43.7,28,71.2
	c6.4,27.6,20.2,125-87.8,165.9c0,0-40.4,15.2-51,17.5c-10.6,2.3-35.6,9.9-49.5,33.2c0,0-17.1-22.6-34.6-28.6
	c-17.5-6-78.6-13.3-121.3-56.1c-42.7-42.7-43.2-97.9-32.2-137.4C112.3,203.5,171.6,119.9,112.3,70.2L112.3,70.2z M121.4,70.3
	L167.2,15l246,0.1l44.4,56c0,0-46.2,32.8-13.9,108.5c0,0,23.1,45.5,29.3,72c6.2,26.6,18.6,119.6-86.8,156.4c0,0-39,14.6-49.1,16.8
	c-10.2,2.2-34.3,9.5-47.7,32c0,0-16.5-21.8-33.3-27.6c-16.8-5.8-76.6-11.5-117.8-52.6c-41.2-41.2-40.7-95.7-30.1-133.7
	C118.8,204.7,178.5,118.1,121.4,70.3L121.4,70.3z M16.2,201.9l24.5,24l28.6-21.7c0,0-36.9,122.8,34.6,200.4c0,0,30,39.2,100.2,59.6
	l4.8,1.4c0,0,9-11,29.2-4.6c20.2,6.4,26.7,12.9,26.7,12.9s7.4-10.3,21.1-9.2c13.8,1.1,18.4,7.6,18.4,7.6s43.4-24.1,56.3-7.1
	c0,0,104.2-14.4,138.8-123.5c0,0,19.2-40.8,0.5-134.9l29.5,18.7l24.4-24.4c0,0,24,120.8-15.5,190.7c-39.5,69.8-87.3,95.6-159,116.7
	c0,0,49.2,44.6,101.5,52.4l-32.2,16.1l11.9,26.7c0,0-112.5-14.1-157.6-97.4c0,0-11,9.2-21.1,6c-10.1-3.2-14.2-6.9-14.2-6.9
	s-45.9,84.8-159.2,99.2l12.9-28l-32.2-17c0,0,71-18.1,101.8-52.2c0,0-110.3-10.6-163.1-121.8C27.8,385.4-7.6,303.6,16.2,201.9
	L16.2,201.9z M391.4,496.6l-7.9-28.7l5.7-1.6l12.4,18.4c1.2,1.7,2,3,2.5,3.9c0-1.1,0.1-2.8,0.3-5l1.4-21.9l5.1-1.4l7.9,28.7l-3.7,1
	l-6.6-24l-1.7,26.3l-3.4,0.9l-15.1-22.2l6.8,24.5L391.4,496.6L391.4,496.6z M418,474.2c-1.9-4.5-2.3-8.6-0.9-12.2
	c1.3-3.6,3.9-6.2,7.8-7.9c2.5-1.1,5.1-1.5,7.6-1.1c2.5,0.3,4.8,1.4,6.8,3.1c2,1.7,3.6,3.9,4.7,6.6c1.2,2.8,1.7,5.5,1.5,8.2
	c-0.2,2.7-1.1,5-2.6,7c-1.6,2-3.5,3.5-5.9,4.5c-2.6,1.1-5.1,1.5-7.7,1.1c-2.6-0.4-4.8-1.4-6.8-3.1C420.5,478.6,419,476.6,418,474.2
	L418,474.2z M421.7,472.6c1.4,3.3,3.4,5.5,6,6.6c2.6,1.1,5.2,1.1,7.9,0c2.7-1.2,4.6-3.1,5.5-5.8c0.9-2.7,0.7-5.8-0.9-9.3
	c-1-2.2-2.2-4-3.6-5.3c-1.5-1.3-3.1-2.1-5-2.4c-1.8-0.3-3.7,0-5.5,0.7c-2.6,1.1-4.4,2.9-5.5,5.5C419.6,465.2,420,468.5,421.7,472.6
	L421.7,472.6z M447.6,465.9l2.9-2.3c1,1.2,2,2,3.1,2.4c1.1,0.4,2.3,0.5,3.8,0.3c1.5-0.3,2.9-0.8,4.3-1.8c1.3-0.8,2.2-1.7,3-2.8
	c0.7-1,1.1-2,1.1-3c0-1-0.2-1.8-0.7-2.6c-0.5-0.8-1.2-1.3-2-1.6c-0.8-0.3-1.9-0.3-3.2,0c-0.8,0.2-2.6,0.8-5.2,1.7
	c-2.7,1-4.6,1.5-5.8,1.6c-1.6,0.2-3,0-4.2-0.6c-1.2-0.5-2.2-1.4-2.9-2.5c-0.8-1.3-1.2-2.7-1.3-4.2c0-1.6,0.5-3.1,1.5-4.5
	c1-1.5,2.3-2.8,4-3.9c1.8-1.2,3.7-2,5.5-2.3c1.8-0.3,3.5-0.2,5,0.5c1.5,0.7,2.8,1.7,3.8,3.1l-3,2.3c-1.2-1.5-2.6-2.3-4.1-2.4
	c-1.5-0.2-3.2,0.4-5.1,1.7c-2,1.3-3.2,2.6-3.6,4c-0.4,1.3-0.3,2.5,0.4,3.5c0.6,0.9,1.4,1.4,2.4,1.6c1,0.2,3.1-0.3,6.1-1.5
	c3.1-1.2,5.3-1.8,6.6-2c1.9-0.3,3.5-0.2,4.9,0.4c1.4,0.6,2.5,1.5,3.4,2.8c0.9,1.3,1.3,2.8,1.3,4.5c0,1.7-0.5,3.3-1.5,4.9
	c-1,1.6-2.4,3-4.1,4.1c-2.2,1.5-4.3,2.4-6.3,2.7c-2,0.3-3.8,0.1-5.5-0.6C450.2,468.8,448.8,467.6,447.6,465.9L447.6,465.9z
	 M469.8,451.7l2.5-2.8c1.1,1,2.3,1.6,3.4,1.9c1.1,0.3,2.4,0.2,3.8-0.3c1.4-0.5,2.7-1.3,4-2.5c1.1-1,1.9-2.1,2.5-3.2
	c0.5-1.1,0.7-2.1,0.6-3.1c-0.1-1-0.5-1.8-1.1-2.4c-0.6-0.7-1.4-1.1-2.3-1.2c-0.9-0.1-1.9,0-3.2,0.5c-0.8,0.3-2.4,1.2-4.9,2.5
	c-2.5,1.4-4.3,2.2-5.5,2.5c-1.6,0.4-3,0.5-4.2,0.1c-1.3-0.3-2.4-1-3.3-2c-1-1.1-1.7-2.4-1.9-4c-0.3-1.5,0-3.1,0.7-4.7
	c0.7-1.6,1.8-3.1,3.3-4.5c1.6-1.5,3.3-2.6,5-3.2c1.7-0.6,3.4-0.7,5-0.3c1.6,0.4,3,1.2,4.3,2.5l-2.6,2.8c-1.4-1.2-2.9-1.8-4.4-1.7
	c-1.5,0.1-3.1,0.9-4.8,2.5c-1.8,1.6-2.7,3.1-2.9,4.5c-0.2,1.4,0.1,2.5,0.9,3.4c0.7,0.8,1.6,1.2,2.6,1.2c1,0,3-0.8,5.8-2.5
	c2.8-1.6,4.9-2.7,6.1-3.1c1.8-0.6,3.4-0.7,4.9-0.4c1.4,0.3,2.7,1.1,3.8,2.3c1.1,1.2,1.8,2.6,2,4.2c0.3,1.6,0.1,3.3-0.6,5
	c-0.7,1.7-1.9,3.3-3.4,4.8c-2,1.8-3.9,3.1-5.8,3.7c-1.9,0.7-3.7,0.8-5.5,0.3C472.8,454,471.2,453.1,469.8,451.7L469.8,451.7z
	 M485.4,430.4c-3.8-3.2-5.9-6.7-6.3-10.5c-0.4-3.8,0.7-7.4,3.4-10.6c1.8-2.1,3.9-3.6,6.3-4.4c2.4-0.8,4.9-0.9,7.5-0.3
	c2.5,0.6,4.9,1.9,7.2,3.8c2.3,1.9,4,4.2,5,6.6c1,2.5,1.3,5,0.8,7.4c-0.5,2.5-1.6,4.7-3.3,6.7c-1.8,2.1-3.9,3.6-6.4,4.4
	c-2.5,0.8-4.9,0.9-7.5,0.3C489.6,433.2,487.4,432.1,485.4,430.4L485.4,430.4z M488,427.3c2.7,2.3,5.5,3.4,8.3,3.2
	c2.8-0.1,5.2-1.3,7-3.6c1.9-2.3,2.7-4.8,2.3-7.6c-0.4-2.8-2-5.4-4.9-7.9c-1.8-1.6-3.7-2.6-5.6-3.1c-1.9-0.5-3.8-0.5-5.5,0
	c-1.8,0.6-3.3,1.6-4.6,3.1c-1.8,2.1-2.6,4.6-2.4,7.4C482.8,421.6,484.6,424.4,488,427.3L488,427.3z M517.4,413.4l-26.1-14.3
	l6.3-11.6c1.3-2.3,2.5-4,3.6-4.9c1.1-1,2.5-1.5,4.1-1.5c1.6-0.1,3.1,0.3,4.5,1.1c1.9,1,3.1,2.5,3.7,4.4c0.6,1.9,0.4,4.2-0.6,6.9
	c0.9-0.7,1.8-1.1,2.4-1.4c1.5-0.5,3.2-0.8,5-1l9.6-0.6l-2.4,4.3l-7.3,0.5c-2.1,0.1-3.8,0.3-5,0.5c-1.2,0.2-2.1,0.5-2.7,0.8
	c-0.6,0.3-1.1,0.7-1.6,1.2c-0.3,0.3-0.7,1-1.2,1.9l-2.2,4l11.6,6.4L517.4,413.4L517.4,413.4z M504.8,402l4.1-7.4
	c0.9-1.6,1.4-2.9,1.5-4c0.2-1.1,0-2-0.5-2.9c-0.5-0.9-1.1-1.5-2-2c-1.2-0.7-2.5-0.8-3.8-0.3c-1.3,0.5-2.5,1.7-3.5,3.6l-4.5,8.3
	L504.8,402L504.8,402z M517.3,382.6c-4.6-1.8-7.8-4.4-9.4-7.9c-1.7-3.5-1.7-7.2-0.2-11.1c1-2.6,2.5-4.6,4.5-6.2
	c2-1.6,4.3-2.5,6.9-2.8c2.6-0.2,5.3,0.2,8.1,1.2c2.8,1.1,5.1,2.6,6.9,4.6c1.8,2,2.9,4.2,3.2,6.8c0.3,2.5,0.1,5-0.9,7.4
	c-1,2.6-2.5,4.7-4.6,6.3c-2,1.6-4.4,2.5-7,2.7C522.2,383.9,519.7,383.6,517.3,382.6L517.3,382.6z M518.8,378.9
	c3.3,1.3,6.3,1.4,8.9,0.3c2.6-1.1,4.4-3,5.5-5.7c1.1-2.8,1-5.4-0.3-8c-1.3-2.5-3.7-4.5-7.3-5.8c-2.3-0.9-4.4-1.2-6.4-1.1
	c-2,0.1-3.7,0.7-5.2,1.9c-1.5,1.1-2.6,2.6-3.3,4.4c-1,2.6-1,5.2,0.1,7.7C512,375.2,514.6,377.3,518.8,378.9L518.8,378.9z M505.3,366
	l-4.4-4.5l1.7-4.5l3.7,6.2L505.3,366L505.3,366z M546.7,332.8l-0.6,3.6l-23-3.9c0.7,1,1.3,2.3,1.9,3.8c0.6,1.5,1,2.9,1.2,4.1
	l-3.5-0.6c-0.6-2.2-1.4-4.1-2.5-5.9c-1.1-1.7-2.2-3-3.4-3.9l0.4-2.3L546.7,332.8L546.7,332.8z M532.8,316.1
	c-0.7,1.5-1.6,2.5-2.7,3.1c-1.1,0.6-2.4,0.8-3.8,0.7c-2.2-0.2-3.9-1.2-5.2-2.9c-1.3-1.7-1.8-3.8-1.5-6.4c0.3-2.6,1.2-4.6,2.9-6
	c1.7-1.4,3.6-2,5.7-1.8c1.4,0.1,2.5,0.6,3.5,1.5c0.9,0.8,1.6,2,2,3.5c0.8-1.7,1.9-3,3.3-3.8c1.4-0.8,3-1.1,4.9-0.9
	c2.5,0.3,4.6,1.4,6.1,3.4c1.5,2,2.1,4.4,1.8,7.3c-0.3,2.9-1.4,5.2-3.3,6.8c-1.9,1.6-4.2,2.3-6.8,2c-1.9-0.2-3.5-0.9-4.7-2
	C533.8,319.5,533.1,318,532.8,316.1L532.8,316.1z M526.5,316.2c1.4,0.2,2.6-0.2,3.6-1c1-0.8,1.6-1.9,1.7-3.4c0.2-1.4-0.2-2.6-1-3.6
	c-0.8-1-1.8-1.5-3.1-1.7c-1.3-0.1-2.5,0.2-3.5,1c-1,0.8-1.6,1.9-1.7,3.3c-0.1,1.4,0.2,2.6,1,3.6
	C524.3,315.5,525.3,316.1,526.5,316.2L526.5,316.2z M540.1,318.9c1,0.1,2.1,0,3.1-0.4c1-0.4,1.8-1,2.5-2c0.6-0.9,1-1.9,1.1-3
	c0.2-1.7-0.2-3.2-1.2-4.5c-1-1.2-2.4-2-4.1-2.1c-1.8-0.2-3.3,0.2-4.5,1.3c-1.3,1-2,2.4-2.2,4.2c-0.2,1.7,0.2,3.2,1.2,4.4
	C537.1,318,538.4,318.7,540.1,318.9L540.1,318.9z M543,300.6l-0.3-3.8c1.9-0.3,3.3-1,4.2-2c0.9-1,1.4-2.3,1.4-3.8
	c0-1.8-0.7-3.3-2-4.5c-1.3-1.2-3.1-1.8-5.3-1.8c-2.1,0-3.7,0.6-4.9,1.8c-1.2,1.2-1.8,2.7-1.8,4.6c0,1.2,0.3,2.2,0.8,3.2
	c0.6,0.9,1.3,1.7,2.1,2.2l-0.5,3.5l-15.3-2.7l-0.1-14.8l3.5,0l0.1,11.8l8.1,1.5c-1.3-1.8-1.9-3.6-1.9-5.6c0-2.6,0.9-4.8,2.6-6.6
	c1.8-1.8,4.1-2.7,6.9-2.7c2.7,0,5,0.7,7,2.3c2.4,1.9,3.7,4.5,3.7,7.8c0,2.7-0.7,4.9-2.2,6.6C547.5,299.4,545.5,300.4,543,300.6
	L543,300.6z M545.9,258.3l3.5-0.2l1.2,19.7c-0.9,0.1-1.7,0-2.6-0.3c-1.4-0.4-2.7-1.1-4.1-2.2c-1.4-1-3-2.5-4.8-4.5
	c-2.9-3.1-5.1-5.1-6.7-6.2c-1.6-1.1-3.1-1.5-4.5-1.4c-1.4,0.1-2.6,0.7-3.6,1.8c-0.9,1.1-1.3,2.5-1.2,4.2c0.1,1.8,0.7,3.1,1.8,4.1
	c1.1,1,2.6,1.4,4.5,1.3l-0.1,3.8c-2.8-0.1-5-0.9-6.6-2.5c-1.6-1.6-2.4-3.8-2.6-6.6c-0.2-2.8,0.5-5.2,1.9-6.9
	c1.5-1.8,3.4-2.7,5.7-2.9c1.2-0.1,2.4,0.1,3.6,0.5c1.2,0.4,2.4,1.1,3.8,2.2c1.3,1.1,3.2,2.8,5.6,5.3c2,2.1,3.3,3.4,4,4
	c0.7,0.6,1.4,1.1,2.1,1.4L545.9,258.3L545.9,258.3z M22.1,253.2l31.5,3.8l-0.8,6.2L29.6,268c-2.2,0.4-3.8,0.7-4.8,0.9
	c1.1,0.5,2.7,1.3,4.8,2.3l21,10.3l-0.7,5.6l-31.5-3.8l0.5-4l26.4,3.2L20,270l0.5-3.8l27.9-5.8l-26.8-3.3L22.1,253.2L22.1,253.2z
	 M51.1,309.8l0.1,4.2L33,314.6c-3.2,0.1-5.7-0.2-7.6-0.8c-1.9-0.7-3.5-1.9-4.7-3.7c-1.2-1.8-1.9-4.3-2-7.3c-0.1-3,0.3-5.4,1.3-7.3
	c1-1.9,2.4-3.3,4.3-4.2c1.9-0.9,4.6-1.4,7.9-1.5l18.3-0.6l0.1,4.2l-18.3,0.6c-2.8,0.1-4.8,0.4-6.1,1c-1.3,0.6-2.3,1.5-2.9,2.7
	c-0.7,1.3-1,2.8-0.9,4.6c0.1,3.1,0.9,5.2,2.3,6.5c1.4,1.3,4.2,1.8,8.1,1.7L51.1,309.8L51.1,309.8z M20.7,321.9l31.1-6.1l0.8,4.2
	l-21.2,21.1l24.4-4.8l0.8,4l-31.1,6.1l-0.8-4.2L45.9,321l-24.4,4.8L20.7,321.9L20.7,321.9z M28,354l30.4-9l1.2,4l-30.4,9L28,354
	L28,354z M51.1,380.7l0.9,4.3c-3.5,0.7-6.5,0.4-9.2-0.9c-2.6-1.3-4.6-3.4-6.1-6.4c-1.5-3.1-2.1-5.9-1.7-8.4c0.3-2.5,1.4-4.9,3.3-7
	c1.9-2.1,4.2-3.9,6.9-5.2c3-1.4,5.8-2.1,8.6-2c2.8,0.1,5.2,0.9,7.4,2.4c2.2,1.5,3.8,3.6,5,6.1c1.4,2.9,1.8,5.6,1.3,8.3
	c-0.5,2.7-1.9,5-4.2,7l-2.7-3.3c1.8-1.7,2.8-3.3,3.2-5.1c0.3-1.7,0.1-3.5-0.9-5.4c-1-2.2-2.5-3.8-4.2-4.7c-1.8-1-3.7-1.3-5.7-1.1
	c-2.1,0.3-4,0.8-5.9,1.7c-2.4,1.2-4.4,2.5-5.9,4.1c-1.5,1.6-2.3,3.3-2.5,5.2c-0.2,1.9,0.1,3.7,1,5.5c1,2.1,2.5,3.6,4.4,4.5
	C46.1,381.2,48.4,381.3,51.1,380.7L51.1,380.7z M45.6,394.4l27.8-15.3l2,3.7l-27.8,15.3L45.6,394.4L45.6,394.4z M74.5,377.1l6.7-0.4
	l2.5,4.5l-7.6-1.2L74.5,377.1L74.5,377.1z M51.7,404.2l25.8-18.5l7,9.7c1.2,1.7,2.1,3.1,2.6,4.1c0.7,1.4,1.1,2.8,1.1,4
	c0,1.3-0.3,2.6-1,3.9c-0.7,1.3-1.7,2.4-3,3.3c-2.2,1.6-4.5,2.2-7.1,1.9c-2.5-0.3-5.1-2.3-7.7-5.9l-4.7-6.6l-10.5,7.5L51.7,404.2
	L51.7,404.2z M67.7,398l4.8,6.7c1.6,2.2,3.1,3.5,4.6,3.8c1.5,0.3,3,0,4.5-1.1c1.1-0.8,1.8-1.7,2.2-2.8c0.4-1.1,0.4-2.2,0-3.2
	c-0.3-0.7-0.9-1.8-2-3.3l-4.7-6.6L67.7,398L67.7,398z M70.1,428.4L93.5,407l2.8,3.1L73,431.5L70.1,428.4L70.1,428.4z M86.9,424.8
	c3.4-4,7.2-6.2,11.3-6.6c4.1-0.4,7.8,0.8,11.2,3.8c2.2,1.9,3.8,4.2,4.6,6.8c0.9,2.6,1,5.2,0.3,7.9c-0.7,2.7-2.1,5.3-4.1,7.7
	c-2.1,2.4-4.5,4.2-7.1,5.3c-2.6,1.1-5.3,1.3-7.9,0.8c-2.7-0.6-5-1.7-7.1-3.5c-2.3-1.9-3.8-4.2-4.7-6.9c-0.8-2.6-0.9-5.3-0.2-8
	C83.8,429.3,85.1,426.9,86.9,424.8L86.9,424.8z M90.1,427.7c-2.5,2.9-3.7,5.8-3.5,8.9c0.1,3,1.4,5.5,3.7,7.5
	c2.4,2.1,5.1,2.9,8.1,2.6c3-0.4,5.8-2.1,8.5-5.2c1.7-2,2.8-3.9,3.4-6c0.6-2,0.6-4,0-5.9c-0.6-1.9-1.7-3.5-3.3-4.9
	c-2.3-1.9-4.9-2.8-7.8-2.7C96.3,422.2,93.2,424.1,90.1,427.7L90.1,427.7z M113.9,467l16.2-27.3l9.4,5.6c2.1,1.3,3.7,2.4,4.6,3.3
	c1.3,1.3,2.3,2.7,2.8,4.3c0.7,2.1,0.9,4.3,0.4,6.6c-0.4,2.3-1.3,4.7-2.8,7.1c-1.2,2.1-2.6,3.8-4,5.1c-1.4,1.3-2.8,2.3-4.2,2.9
	c-1.4,0.6-2.7,0.9-4,1c-1.3,0.1-2.6-0.1-4.1-0.6c-1.5-0.5-3-1.2-4.7-2.2L113.9,467L113.9,467z M119.4,466l5.8,3.5
	c1.8,1.1,3.3,1.7,4.5,2c1.2,0.3,2.3,0.3,3.3,0c1.4-0.3,2.7-1.1,4.1-2.3c1.3-1.2,2.6-2.8,3.9-4.8c1.7-2.9,2.5-5.3,2.5-7.4
	c0-2.1-0.5-3.8-1.6-5.1c-0.7-0.9-2.2-2.1-4.3-3.3l-5.7-3.4L119.4,466L119.4,466z M141.6,483.3l14.8-28.1l20.3,10.7l-1.7,3.3
	l-16.6-8.7l-4.5,8.6l15.5,8.1l-1.7,3.3l-15.5-8.1l-5,9.6l17.2,9l-1.7,3.3L141.6,483.3L141.6,483.3z M204.8,148.4L192.9,138
	c0,0,5.3-4,9.8-2c4.5,2,2.1,11.3,2.1,11.3L204.8,148.4L204.8,148.4z M237.2,95.8l16.2,12.7l-0.7,0.8l9.7,8.7l7.4,0.6l-0.5,15.2
	c0,0-10.4-2.7-9.6-13.8c0,0-5.2,1.5-8.8-2.3c-3.6-3.9-1.5-7-1.5-7s-10.1,3.8-11.9-2.7c-1.8-6.5-0.4-11.2-0.4-11.2V95.8L237.2,95.8z
	 M197,118.4l-4.8,13.4c0,0,10.6-1.5,12-5.2C205.6,123.1,197,118.4,197,118.4L197,118.4z M221.4,126.9c0,0,1.2,13,0.2,12.8
	c-0.9-0.2-15.6-3.3-13.3-7.3C210.6,128.4,221.4,126.9,221.4,126.9L221.4,126.9z M217.2,115.7c0,0,5.1-6.7,10.7-5.3
	c5.6,1.4,1.5,13,1.5,13L217.2,115.7L217.2,115.7z M211.1,95.8l20.6-1c0,0-1.9,11.6-6.8,12C220,107.3,211.1,95.8,211.1,95.8
	L211.1,95.8z M195.4,114.2L210.6,99c0,0,7.6,10,4.2,17.2C211.3,123.3,195.4,114.2,195.4,114.2L195.4,114.2z M137.2,69.5L171,27.3
	h234.5l34.2,42.3c0,0-36,36-14.7,95.6c0,0,12.9,33.1,18.7,44.8c5.9,11.8,16.9,47.4,17.3,59.5l-73.9-0.7l-9.2,11.4l-29.8-0.4
	c0,0,0-2.9-1.8-5.5l88.6-42.6l-5.9-16.5l-84.9,53.3l-5.5-9.2l72.4-60.7l-8.8-14.7l-70.9,69.5l-5.5-4.8l57.7-81.6l-12.5-9.6
	l-52.9,86.4l-5.5-2.9l39.7-91.5l-15.4-7.7l-31.2,97c0,0-4.4-1.8-12.5-2.2l11.8-106.2l-18,0.4l-1.5,105.9c0,0-6.6,0.4-9.9,0.4
	c-3.3,0-18.7-73.9-18.7-73.9l16.9-0.7c0,0-2.8-10.7-9.4-12.5c-6.6-1.8-8.8,8.3-8.8,8.3l-2.8-10.8c0,0,7.4-7,8.8-7.9
	c1.5-0.9,3.3,3.7,4.8,5.7c1.5,2,5,4.4,5,4.4l6.4-14.2c0,0-6.2-0.2-10.1-0.2c-3.9,0-3.9,2.8-3.9,2.8s-5.1-1.5-8.3-1.8
	c-3.1-0.4-6.1-0.6-6.1-0.6l-1.3-3.9c0,0,2.9-3.7,0-7.9c-2.9-4.2-9.4-2.8-12.3,0.2c-2.9,2.9-1.8,9-0.7,12.5l-9.4,15.6
	c0,0-0.2-7-5.5-8.1c-5.3-1.1-11,9-11,9l15.8,3.1l-7.7,13.8L203,148.2l-12.3,7.9l20.6,28.3c0,0-6.8,15.8-7.5,21.7l-31.6-30.9
	l-9.7,11.8l37.5,29.6l-6.2,23l-14-10.3c0,0,5.3-3.1,6.1-4.6c0,0,3.9,0.4,3.7-0.9c-0.2-1.3-0.4-2.6-2.9-2.6c-2.6,0-3.5,0.9-5.9-2.6
	c-2.4-3.5-6.1-3.3-8.8-2.6c-2.8,0.7-4.4,4.4-4.4,4.4L146,206l-8.3,10.1l31.6,19.5c0,0,1.3,9,2.2,11.8c0.9,2.8,2,6.4,1.1,7.5
	c-0.9,1.1-2.8,0.2-2.8,0.2s-3.7-12.9-11.8-15.3c-8.1-2.4-16.5-0.4-23,4.2c-6.4,4.6-10.7,9.2-10.7,9.2s-3.3-2.2-5.7-1.5
	c-2.4,0.7,18-52.4,28.7-72.6c10.7-20.2,15.8-62.5,5.1-84.4C142,73,137.2,69.5,137.2,69.5L137.2,69.5z M251.2,361.6l42.3-61l25,0.7
	l13.6-16.2l49.6-0.4l8.1-10.3l71.7-0.7c0,0,2.2,22.8-0.4,33.8l-9.9,1.1l3.7,5.1L435,331.1l-21.3-0.7l7.4,11l-19.1,21L251.2,361.6
	L251.2,361.6z M172.9,223.4c0,0-0.4-2,0.8-2.8c1.2-0.8,3.1-0.3,3.6,0c0.5,0.3,0.8,2.3-0.7,2.8C175.1,223.9,173.1,224.5,172.9,223.4
	L172.9,223.4z M264.5,275.4c0,0,1.7-1.6,3-0.3c1.3,1.3,3.4,3,3.9,1.7c0.5-1.3-3.7-5.9-7.3-6.3c-3.6-0.5-6.4,1.7-8.1,2.8
	c-1.7,1.1,1.9,1.2,3.8,1.7c1.8,0.5,1.3,2.1,2.8,2.6C264.1,277.9,264.5,275.4,264.5,275.4L264.5,275.4z M255.6,262.5
	c0,0,8.9-1.1,12.1,0.6c3.2,1.7,8.4,6.1,9.6,3.2c1.2-2.8-4.3-6.3-8.3-7.4c-4-1.1-12.1,0.1-14.1,1c-1.9,0.9-4.8,3.1-3.5,3.2
	C252.8,263.2,255.6,262.5,255.6,262.5L255.6,262.5z M309.4,260.3c0,0-0.3,0.1-0.8,0.2c-1.8,0.4-6.1,1.5-7.1,3.3
	c-1.2,2.4,1,5.8,2.8,4.9c1.7-0.9,5.4-4.9,10.7-5.1c5.2-0.3,8.2-1.3,6.8-1.9C320.3,260.9,311.4,259.5,309.4,260.3L309.4,260.3z
	 M300.8,277.5c0,0,5.1-5.6,10.5-6.1c5.3-0.5,6.2,0.6,8.5,1.6c2.3,1,2.1,3.7,1.4,3.9c-0.7,0.2-2.2-0.2-2.9-0.9
	c-0.7-0.7-3-0.6-4.1-0.1c-1.1,0.6-1.8,2.7-3.7,1.8c-1.8-0.8-1.7-1-4.7-0.8C302.7,277,300.8,277.5,300.8,277.5L300.8,277.5z
	 M185.4,281.4c0,0-0.9,14-1.1,18l-14.3-0.4v-14.3c0,0,5-1.8,5.9-3.5L185.4,281.4L185.4,281.4z M180.4,244.3c0,0,0.2,7.9,2,13.2
	c1.8,5.3,3.5,13,3.5,13l2.8,0.2l2.2-20.4L180.4,244.3L180.4,244.3z M157.3,299.4l9.2-0.6c0,0-0.4-5.3-2.8-7.9
	c-2.4-2.6-3.1-5.5-5.1-4.2C156.6,288,157.3,299.4,157.3,299.4L157.3,299.4z M115.4,268.9h1.5c0,0,2,10.7,8.3,8.6
	c6.2-2,9.7-3.5,11-2.6c1.3,0.9,0.9,5.7,4,5.7c3.1,0,6.3,1.7,7.9,5c1.7,3.3,2.6,4.6,4.6,6.6c2,2,0.2,6.8,0.2,6.8l-38.4-0.4
	L115.4,268.9L115.4,268.9z M211.9,214l4.6-21.3l38.6,50.7c0,0-6.8,3.7-7.9,5.9L211.9,214L211.9,214z M231.7,265.4
	c0,0,8.3-10.8,11.2-12.1l-34-27.9l-2.2,22.6L231.7,265.4L231.7,265.4z M227.7,272c0,0-2.9,7.9-2.8,9.9l-21.1-6.1l0.4-17.5L227.7,272
	L227.7,272z M203.8,283.6l-0.2,16l19.1-0.6l0.4-10.8L203.8,283.6L203.8,283.6z M263.3,240.3c0,0,5.1-2.2,7.5-1.5l-33.5-96.1
	l-15.6,34.7L263.3,240.3L263.3,240.3z"/>
</svg>
