<svg xmlns="http://www.w3.org/2000/svg" xmlns:xlink="http://www.w3.org/1999/xlink" width="341.318" height="344.277" viewBox="0 0 341.318 344.277">
  <defs>
    <filter id="Caminho_89" x="0" y="0" width="341.318" height="344.277" filterUnits="userSpaceOnUse">
      <feOffset dx="5" dy="12" input="SourceAlpha"/>
      <feGaussianBlur stdDeviation="3" result="blur"/>
      <feFlood flood-opacity="0.161"/>
      <feComposite operator="in" in2="blur"/>
      <feComposite in="SourceGraphic"/>
    </filter>
    <filter id="Caminho_90" x="13.243" y="13.355" width="314.682" height="317.654" filterUnits="userSpaceOnUse">
      <feOffset dx="5" dy="12" input="SourceAlpha"/>
      <feGaussianBlur stdDeviation="3" result="blur-2"/>
      <feFlood flood-opacity="0.161"/>
      <feComposite operator="in" in2="blur-2"/>
      <feComposite in="SourceGraphic"/>
    </filter>
    <filter id="Caminho_91" x="17.301" y="17.425" width="306.448" height="309.551" filterUnits="userSpaceOnUse">
      <feOffset dx="5" dy="12" input="SourceAlpha"/>
      <feGaussianBlur stdDeviation="3" result="blur-3"/>
      <feFlood flood-opacity="0.161"/>
      <feComposite operator="in" in2="blur-3"/>
      <feComposite in="SourceGraphic"/>
    </filter>
    <filter id="Caminho_92" x="157.004" y="18.856" width="22.16" height="25.85" filterUnits="userSpaceOnUse">
      <feOffset dx="5" dy="12" input="SourceAlpha"/>
      <feGaussianBlur stdDeviation="3" result="blur-4"/>
      <feFlood flood-opacity="0.161"/>
      <feComposite operator="in" in2="blur-4"/>
      <feComposite in="SourceGraphic"/>
    </filter>
    <filter id="Caminho_93" x="161.824" y="18.854" width="22.167" height="25.816" filterUnits="userSpaceOnUse">
      <feOffset dx="5" dy="12" input="SourceAlpha"/>
      <feGaussianBlur stdDeviation="3" result="blur-5"/>
      <feFlood flood-opacity="0.161"/>
      <feComposite operator="in" in2="blur-5"/>
      <feComposite in="SourceGraphic"/>
    </filter>
    <filter id="Caminho_94" x="163.11" y="34.113" width="31.774" height="45.433" filterUnits="userSpaceOnUse">
      <feOffset dx="5" dy="12" input="SourceAlpha"/>
      <feGaussianBlur stdDeviation="3" result="blur-6"/>
      <feFlood flood-opacity="0.161"/>
      <feComposite operator="in" in2="blur-6"/>
      <feComposite in="SourceGraphic"/>
    </filter>
    <filter id="Caminho_95" x="147.946" y="34.259" width="31.395" height="45.287" filterUnits="userSpaceOnUse">
      <feOffset dx="5" dy="12" input="SourceAlpha"/>
      <feGaussianBlur stdDeviation="3" result="blur-7"/>
      <feFlood flood-opacity="0.161"/>
      <feComposite operator="in" in2="blur-7"/>
      <feComposite in="SourceGraphic"/>
    </filter>
    <filter id="Caminho_96" x="89.541" y="52.48" width="31.445" height="45.262" filterUnits="userSpaceOnUse">
      <feOffset dx="5" dy="12" input="SourceAlpha"/>
      <feGaussianBlur stdDeviation="3" result="blur-8"/>
      <feFlood flood-opacity="0.161"/>
      <feComposite operator="in" in2="blur-8"/>
      <feComposite in="SourceGraphic"/>
    </filter>
    <filter id="Caminho_97" x="103.947" y="52.48" width="31.445" height="45.262" filterUnits="userSpaceOnUse">
      <feOffset dx="5" dy="12" input="SourceAlpha"/>
      <feGaussianBlur stdDeviation="3" result="blur-9"/>
      <feFlood flood-opacity="0.161"/>
      <feComposite operator="in" in2="blur-9"/>
      <feComposite in="SourceGraphic"/>
    </filter>
    <filter id="Caminho_98" x="215.93" y="52.48" width="31.268" height="45.262" filterUnits="userSpaceOnUse">
      <feOffset dx="5" dy="12" input="SourceAlpha"/>
      <feGaussianBlur stdDeviation="3" result="blur-10"/>
      <feFlood flood-opacity="0.161"/>
      <feComposite operator="in" in2="blur-10"/>
      <feComposite in="SourceGraphic"/>
    </filter>
    <filter id="Caminho_99" x="91.834" y="92.195" width="194.183" height="218.09" filterUnits="userSpaceOnUse">
      <feOffset dx="5" dy="12" input="SourceAlpha"/>
      <feGaussianBlur stdDeviation="3" result="blur-11"/>
      <feFlood flood-opacity="0.161"/>
      <feComposite operator="in" in2="blur-11"/>
      <feComposite in="SourceGraphic"/>
    </filter>
    <filter id="Caminho_100" x="61.316" y="93.966" width="31.592" height="45.729" filterUnits="userSpaceOnUse">
      <feOffset dx="5" dy="12" input="SourceAlpha"/>
      <feGaussianBlur stdDeviation="3" result="blur-12"/>
      <feFlood flood-opacity="0.161"/>
      <feComposite operator="in" in2="blur-12"/>
      <feComposite in="SourceGraphic"/>
    </filter>
    <filter id="Caminho_101" x="46.097" y="94.206" width="31.268" height="45.237" filterUnits="userSpaceOnUse">
      <feOffset dx="5" dy="12" input="SourceAlpha"/>
      <feGaussianBlur stdDeviation="3" result="blur-13"/>
      <feFlood flood-opacity="0.161"/>
      <feComposite operator="in" in2="blur-13"/>
      <feComposite in="SourceGraphic"/>
    </filter>
    <filter id="Caminho_102" x="32.492" y="150.169" width="31.839" height="45.796" filterUnits="userSpaceOnUse">
      <feOffset dx="5" dy="12" input="SourceAlpha"/>
      <feGaussianBlur stdDeviation="3" result="blur-14"/>
      <feFlood flood-opacity="0.161"/>
      <feComposite operator="in" in2="blur-14"/>
      <feComposite in="SourceGraphic"/>
    </filter>
    <filter id="Caminho_103" x="276.485" y="152.055" width="32.126" height="45.749" filterUnits="userSpaceOnUse">
      <feOffset dx="5" dy="12" input="SourceAlpha"/>
      <feGaussianBlur stdDeviation="3" result="blur-15"/>
      <feFlood flood-opacity="0.161"/>
      <feComposite operator="in" in2="blur-15"/>
      <feComposite in="SourceGraphic"/>
    </filter>
    <filter id="Caminho_104" x="51.555" y="209.99" width="32.002" height="45.807" filterUnits="userSpaceOnUse">
      <feOffset dx="5" dy="12" input="SourceAlpha"/>
      <feGaussianBlur stdDeviation="3" result="blur-16"/>
      <feFlood flood-opacity="0.161"/>
      <feComposite operator="in" in2="blur-16"/>
      <feComposite in="SourceGraphic"/>
    </filter>
    <filter id="Caminho_105" x="256.366" y="212.204" width="33.164" height="45.009" filterUnits="userSpaceOnUse">
      <feOffset dx="5" dy="12" input="SourceAlpha"/>
      <feGaussianBlur stdDeviation="3" result="blur-17"/>
      <feFlood flood-opacity="0.161"/>
      <feComposite operator="in" in2="blur-17"/>
      <feComposite in="SourceGraphic"/>
    </filter>
    <filter id="Caminho_106" x="213.034" y="250.366" width="32.158" height="45.339" filterUnits="userSpaceOnUse">
      <feOffset dx="5" dy="12" input="SourceAlpha"/>
      <feGaussianBlur stdDeviation="3" result="blur-18"/>
      <feFlood flood-opacity="0.161"/>
      <feComposite operator="in" in2="blur-18"/>
      <feComposite in="SourceGraphic"/>
    </filter>
    <filter id="Caminho_107" x="96.112" y="252.135" width="31.673" height="45.009" filterUnits="userSpaceOnUse">
      <feOffset dx="5" dy="12" input="SourceAlpha"/>
      <feGaussianBlur stdDeviation="3" result="blur-19"/>
      <feFlood flood-opacity="0.161"/>
      <feComposite operator="in" in2="blur-19"/>
      <feComposite in="SourceGraphic"/>
    </filter>
    <filter id="Caminho_108" x="228.112" y="37.317" width="23.257" height="26.048" filterUnits="userSpaceOnUse">
      <feOffset dx="5" dy="12" input="SourceAlpha"/>
      <feGaussianBlur stdDeviation="3" result="blur-20"/>
      <feFlood flood-opacity="0.161"/>
      <feComposite operator="in" in2="blur-20"/>
      <feComposite in="SourceGraphic"/>
    </filter>
    <filter id="Caminho_109" x="91.437" y="36.588" width="22.634" height="26.242" filterUnits="userSpaceOnUse">
      <feOffset dx="5" dy="12" input="SourceAlpha"/>
      <feGaussianBlur stdDeviation="3" result="blur-21"/>
      <feFlood flood-opacity="0.161"/>
      <feComposite operator="in" in2="blur-21"/>
      <feComposite in="SourceGraphic"/>
    </filter>
    <filter id="Caminho_110" x="87.227" y="38.907" width="22.613" height="26.322" filterUnits="userSpaceOnUse">
      <feOffset dx="5" dy="12" input="SourceAlpha"/>
      <feGaussianBlur stdDeviation="3" result="blur-22"/>
      <feFlood flood-opacity="0.161"/>
      <feComposite operator="in" in2="blur-22"/>
      <feComposite in="SourceGraphic"/>
    </filter>
    <filter id="Caminho_111" x="278.651" y="85.601" width="22.338" height="24.801" filterUnits="userSpaceOnUse">
      <feOffset dx="5" dy="12" input="SourceAlpha"/>
      <feGaussianBlur stdDeviation="3" result="blur-23"/>
      <feFlood flood-opacity="0.161"/>
      <feComposite operator="in" in2="blur-23"/>
      <feComposite in="SourceGraphic"/>
    </filter>
    <filter id="Caminho_112" x="280.735" y="89.633" width="22.921" height="25.577" filterUnits="userSpaceOnUse">
      <feOffset dx="5" dy="12" input="SourceAlpha"/>
      <feGaussianBlur stdDeviation="3" result="blur-24"/>
      <feFlood flood-opacity="0.161"/>
      <feComposite operator="in" in2="blur-24"/>
      <feComposite in="SourceGraphic"/>
    </filter>
    <filter id="Caminho_113" x="39.366" y="86.599" width="22.952" height="25.717" filterUnits="userSpaceOnUse">
      <feOffset dx="5" dy="12" input="SourceAlpha"/>
      <feGaussianBlur stdDeviation="3" result="blur-25"/>
      <feFlood flood-opacity="0.161"/>
      <feComposite operator="in" in2="blur-25"/>
      <feComposite in="SourceGraphic"/>
    </filter>
    <filter id="Caminho_114" x="36.519" y="90.39" width="23.21" height="26.307" filterUnits="userSpaceOnUse">
      <feOffset dx="5" dy="12" input="SourceAlpha"/>
      <feGaussianBlur stdDeviation="3" result="blur-26"/>
      <feFlood flood-opacity="0.161"/>
      <feComposite operator="in" in2="blur-26"/>
      <feComposite in="SourceGraphic"/>
    </filter>
    <filter id="Caminho_115" x="19.056" y="156.635" width="22.802" height="25.246" filterUnits="userSpaceOnUse">
      <feOffset dx="5" dy="12" input="SourceAlpha"/>
      <feGaussianBlur stdDeviation="3" result="blur-27"/>
      <feFlood flood-opacity="0.161"/>
      <feComposite operator="in" in2="blur-27"/>
      <feComposite in="SourceGraphic"/>
    </filter>
    <filter id="Caminho_116" x="19.056" y="161.406" width="22.802" height="25.353" filterUnits="userSpaceOnUse">
      <feOffset dx="5" dy="12" input="SourceAlpha"/>
      <feGaussianBlur stdDeviation="3" result="blur-28"/>
      <feFlood flood-opacity="0.161"/>
      <feComposite operator="in" in2="blur-28"/>
      <feComposite in="SourceGraphic"/>
    </filter>
    <filter id="Caminho_117" x="299.077" y="156.349" width="22.539" height="23.529" filterUnits="userSpaceOnUse">
      <feOffset dx="5" dy="12" input="SourceAlpha"/>
      <feGaussianBlur stdDeviation="3" result="blur-29"/>
      <feFlood flood-opacity="0.161"/>
      <feComposite operator="in" in2="blur-29"/>
      <feComposite in="SourceGraphic"/>
    </filter>
    <filter id="Caminho_118" x="298.947" y="160.9" width="22.679" height="25.025" filterUnits="userSpaceOnUse">
      <feOffset dx="5" dy="12" input="SourceAlpha"/>
      <feGaussianBlur stdDeviation="3" result="blur-30"/>
      <feFlood flood-opacity="0.161"/>
      <feComposite operator="in" in2="blur-30"/>
      <feComposite in="SourceGraphic"/>
    </filter>
    <filter id="Caminho_119" x="36.614" y="228.236" width="22.745" height="24.831" filterUnits="userSpaceOnUse">
      <feOffset dx="5" dy="12" input="SourceAlpha"/>
      <feGaussianBlur stdDeviation="3" result="blur-31"/>
      <feFlood flood-opacity="0.161"/>
      <feComposite operator="in" in2="blur-31"/>
      <feComposite in="SourceGraphic"/>
    </filter>
    <filter id="Caminho_120" x="38.768" y="231.467" width="23.027" height="25.71" filterUnits="userSpaceOnUse">
      <feOffset dx="5" dy="12" input="SourceAlpha"/>
      <feGaussianBlur stdDeviation="3" result="blur-32"/>
      <feFlood flood-opacity="0.161"/>
      <feComposite operator="in" in2="blur-32"/>
      <feComposite in="SourceGraphic"/>
    </filter>
    <filter id="Caminho_121" x="282.132" y="226.388" width="22.814" height="25.735" filterUnits="userSpaceOnUse">
      <feOffset dx="5" dy="12" input="SourceAlpha"/>
      <feGaussianBlur stdDeviation="3" result="blur-33"/>
      <feFlood flood-opacity="0.161"/>
      <feComposite operator="in" in2="blur-33"/>
      <feComposite in="SourceGraphic"/>
    </filter>
    <filter id="Caminho_122" x="279.39" y="230.419" width="23.368" height="26.276" filterUnits="userSpaceOnUse">
      <feOffset dx="5" dy="12" input="SourceAlpha"/>
      <feGaussianBlur stdDeviation="3" result="blur-34"/>
      <feFlood flood-opacity="0.161"/>
      <feComposite operator="in" in2="blur-34"/>
      <feComposite in="SourceGraphic"/>
    </filter>
    <filter id="Caminho_123" x="86.534" y="279.177" width="22.813" height="26.054" filterUnits="userSpaceOnUse">
      <feOffset dx="5" dy="12" input="SourceAlpha"/>
      <feGaussianBlur stdDeviation="3" result="blur-35"/>
      <feFlood flood-opacity="0.161"/>
      <feComposite operator="in" in2="blur-35"/>
      <feComposite in="SourceGraphic"/>
    </filter>
    <filter id="Caminho_124" x="90.627" y="281.451" width="23.198" height="26.055" filterUnits="userSpaceOnUse">
      <feOffset dx="5" dy="12" input="SourceAlpha"/>
      <feGaussianBlur stdDeviation="3" result="blur-36"/>
      <feFlood flood-opacity="0.161"/>
      <feComposite operator="in" in2="blur-36"/>
      <feComposite in="SourceGraphic"/>
    </filter>
    <filter id="Caminho_125" x="231.65" y="278.745" width="22.751" height="26.373" filterUnits="userSpaceOnUse">
      <feOffset dx="5" dy="12" input="SourceAlpha"/>
      <feGaussianBlur stdDeviation="3" result="blur-37"/>
      <feFlood flood-opacity="0.161"/>
      <feComposite operator="in" in2="blur-37"/>
      <feComposite in="SourceGraphic"/>
    </filter>
    <filter id="Caminho_126" x="227.364" y="281.237" width="23.246" height="26.522" filterUnits="userSpaceOnUse">
      <feOffset dx="5" dy="12" input="SourceAlpha"/>
      <feGaussianBlur stdDeviation="3" result="blur-38"/>
      <feFlood flood-opacity="0.161"/>
      <feComposite operator="in" in2="blur-38"/>
      <feComposite in="SourceGraphic"/>
    </filter>
    <filter id="Caminho_127" x="157.297" y="299.395" width="22.163" height="26.042" filterUnits="userSpaceOnUse">
      <feOffset dx="5" dy="12" input="SourceAlpha"/>
      <feGaussianBlur stdDeviation="3" result="blur-39"/>
      <feFlood flood-opacity="0.161"/>
      <feComposite operator="in" in2="blur-39"/>
      <feComposite in="SourceGraphic"/>
    </filter>
    <filter id="Caminho_128" x="162.142" y="299.423" width="22.253" height="26.002" filterUnits="userSpaceOnUse">
      <feOffset dx="5" dy="12" input="SourceAlpha"/>
      <feGaussianBlur stdDeviation="3" result="blur-40"/>
      <feFlood flood-opacity="0.161"/>
      <feComposite operator="in" in2="blur-40"/>
      <feComposite in="SourceGraphic"/>
    </filter>
  </defs>
  <g id="_1300646" data-name="1300646" transform="translate(3.4 1279.657)">
    <g transform="matrix(1, 0, 0, 1, -3.4, -1279.66)" filter="url(#Caminho_89)">
      <path id="Caminho_89-2" data-name="Caminho 89" d="M154.485-1279.592c-.682.051-2.906.2-4.928.354a161.7,161.7,0,0,0-84.032,31.566,162.056,162.056,0,0,0-62.019,98.336A146.164,146.164,0,0,0,.6-1118a132.383,132.383,0,0,0,1.516,23,161.254,161.254,0,0,0,38.364,83.526c3.134,3.589,10.842,11.347,14.557,14.608a162.2,162.2,0,0,0,51.127,30.605,164.649,164.649,0,0,0,42,9.427,216.459,216.459,0,0,0,28.053,0,164.649,164.649,0,0,0,42-9.427,133.091,133.091,0,0,0,15.871-6.925A161.675,161.675,0,0,0,313.2-1060a161.949,161.949,0,0,0,9.7-76.071c-5.333-47.462-31.035-89.617-71.117-116.633a184.765,184.765,0,0,0-27.295-14.608,161.047,161.047,0,0,0-48.144-11.828C172.682-1279.491,157.291-1279.794,154.485-1279.592Zm21.128,9.578a152.277,152.277,0,0,1,85.144,35.508,214.676,214.676,0,0,1,17.944,17.944,152.4,152.4,0,0,1,34.472,120.551,151.929,151.929,0,0,1-34.371,76.45,176.881,176.881,0,0,1-21.2,20.648,152.231,152.231,0,0,1-73.442,31.919,130.567,130.567,0,0,1-21.962,1.466,126.454,126.454,0,0,1-22.114-1.491A152.4,152.4,0,0,1,40-1026.637a152.032,152.032,0,0,1-26.789-58.228A142.449,142.449,0,0,1,9.7-1117.872a141.763,141.763,0,0,1,3.513-33.259,152.014,152.014,0,0,1,32.071-64.926A210.111,210.111,0,0,1,63.6-1234.48a152.361,152.361,0,0,1,65.456-32.5,157.578,157.578,0,0,1,26.688-3.513C158.933-1270.7,171.6-1270.393,175.613-1270.014Z" transform="translate(3.4 1279.66)" fill="#fff700"/>
    </g>
    <g transform="matrix(1, 0, 0, 1, -3.4, -1279.66)" filter="url(#Caminho_90)">
      <path id="Caminho_90-2" data-name="Caminho 90" d="M190.61-1226.582a147.834,147.834,0,0,0-86.079,35.533,209.676,209.676,0,0,0-15.72,15.72,147.88,147.88,0,0,0-35.432,85.017,183.913,183.913,0,0,0,0,23.6,148.014,148.014,0,0,0,35.862,85.5,204.382,204.382,0,0,0,15.189,15.138A148.017,148.017,0,0,0,182.27-931.3a160.636,160.636,0,0,0,38.162,0,148.191,148.191,0,0,0,65.456-25.2,148.265,148.265,0,0,0,63.434-110.214,193.581,193.581,0,0,0,0-23.6,148.186,148.186,0,0,0-30.555-79.028,171.083,171.083,0,0,0-20.6-21.709,147.8,147.8,0,0,0-86.433-35.559C207.846-1226.885,194.4-1226.885,190.61-1226.582Zm18.449,1.238a146.2,146.2,0,0,1,72.912,23.857,171.373,171.373,0,0,1,15.037,11.272c3.892,3.361,12.687,12.156,16.048,16.048a150.954,150.954,0,0,1,19.612,29.519,146.084,146.084,0,0,1,15.29,54.513,218.091,218.091,0,0,1,.025,23c-2.7,31.464-14,59.037-34.017,83.147a188.14,188.14,0,0,1-18.1,18.1,146.27,146.27,0,0,1-70.384,32.425,133.17,133.17,0,0,1-24.135,1.9,133.17,133.17,0,0,1-24.135-1.9,146.5,146.5,0,0,1-70.384-32.425,188.145,188.145,0,0,1-18.1-18.1,144.632,144.632,0,0,1-18.07-27.168c-9.123-17.767-14.026-34.927-15.922-55.726a222.973,222.973,0,0,1,0-23.251c1.845-20.294,6.571-37.126,15.29-54.538a151.535,151.535,0,0,1,19.612-29.493c3.361-3.892,12.156-12.687,16.048-16.048A147.043,147.043,0,0,1,209.059-1225.344Z" transform="translate(-35.76 1240.17)" fill="#0c3d68"/>
    </g>
    <g transform="matrix(1, 0, 0, 1, -3.4, -1279.66)" filter="url(#Caminho_91)">
      <path id="Caminho_91-2" data-name="Caminho 91" d="M205.643-1210.631a145.981,145.981,0,0,0-42.964,9,144.634,144.634,0,0,0-86.332,89.718,145.648,145.648,0,0,0-5,71.218,144.1,144.1,0,0,0,26.081,60.149,144.21,144.21,0,0,0,140.188,56.333,144.4,144.4,0,0,0,96.592-63.409,144.126,144.126,0,0,0,21.911-57.622,121.339,121.339,0,0,0,1.39-21.229,121.339,121.339,0,0,0-1.39-21.229,145.066,145.066,0,0,0-8.82-32.475c-.834-2.1-1.719-4.3-1.971-4.928a6.771,6.771,0,0,0-.556-1.264c-.076-.076-1.011-1.946-2.123-4.17a148.009,148.009,0,0,0-19.89-30.075,183.736,183.736,0,0,0-16.4-16.2A143.609,143.609,0,0,0,227-1210.151C223.031-1210.555,209.156-1210.858,205.643-1210.631Zm19.308.859c1.441.126,2.628.278,2.654.3a62.885,62.885,0,0,1-.4,6.925,25.158,25.158,0,0,1-3.639-.152c-4.271-.329-16.377-.329-20.319,0-1.592.126-3.083.253-3.311.253-.329,0-.48-.48-.708-2.477-.177-1.339-.354-2.932-.43-3.513l-.152-1.036,1.592-.177A175.2,175.2,0,0,1,224.951-1209.771Zm-26.41,3.917a16.794,16.794,0,0,1,.2,3.437,35.266,35.266,0,0,1-3.589.581c-1.87.227-4.878.708-6.7,1.036a33.125,33.125,0,0,1-3.336.531c-.051-.025-.354-1.365-.708-2.957s-.682-3.134-.758-3.412c-.1-.505.051-.581,2.729-1.087,2.527-.455,8.694-1.39,10.665-1.592a1.928,1.928,0,0,1,.935.051A26.118,26.118,0,0,1,198.541-1205.854Zm34.4-3.033c2.906.379,8.391,1.289,9.25,1.542.354.1.329.505-.3,3.589a12.681,12.681,0,0,1-.91,3.412c-1.491-.278-9.983-1.617-11.3-1.769l-1.744-.2.051-2.148c.025-1.188.1-2.805.177-3.589l.152-1.415.809.1C229.551-1209.317,231.27-1209.089,232.938-1208.887Zm-49.914,2.072c0,.126.354,1.668.758,3.488.4,1.794.708,3.285.682,3.311-.025,0-1.188.278-2.578.606-2.173.48-8.921,2.325-9.856,2.679-.278.1-1.516-2.957-2.5-6.116-.152-.505.025-.607,1.971-1.213,2.275-.708,10.665-2.906,11.221-2.906C182.872-1206.991,183.024-1206.916,183.024-1206.815Zm65.987,1.087c6.369,1.617,8.466,2.325,8.365,2.805-.076.4-2.1,6.116-2.2,6.242-.025.025-1.82-.43-3.943-1.062-2.148-.606-5.029-1.365-6.419-1.668a16.1,16.1,0,0,1-2.755-.783,36,36,0,0,1,1.036-6.621C243.3-1207.143,244.058-1207.017,249.011-1205.728Zm-79.609,4.22c.3.96.834,2.452,1.137,3.336a9.057,9.057,0,0,1,.531,1.693c-.025.025-1.82.682-4.018,1.466-2.173.783-5,1.87-6.293,2.426a16.1,16.1,0,0,1-2.4.935c-.177-.2-3.159-6.318-3.083-6.369.48-.354,12.813-5.13,13.395-5.181A6.934,6.934,0,0,1,169.4-1201.507Zm97.5,1.567a35.165,35.165,0,0,1,4.271,1.921c.227.177-2.831,6.445-3.083,6.344-2-.885-6.95-2.805-9.123-3.563a29.07,29.07,0,0,1-2.982-1.137,12.478,12.478,0,0,1,.96-3.488l1.188-3.286,3.058,1.087C262.886-1201.457,265.464-1200.5,266.9-1199.94Zm-44.076-2.249a135.8,135.8,0,0,1,99.878,54.842,135.516,135.516,0,0,1,25.07,60.023c1.188,7.683,1.39,10.741,1.415,20.6,0,9.654-.152,12.232-1.163,19.334a136.157,136.157,0,0,1-65.81,98.235c-16.983,10.033-35.634,16.023-56.484,18.2a238.126,238.126,0,0,1-24.767,0c-21.355-2.224-39.88-8.289-57.5-18.828a136.723,136.723,0,0,1-56.484-66.24,136.485,136.485,0,0,1-9.376-41.472,185.3,185.3,0,0,1,.4-22.872c2.5-22.594,9.629-42.61,21.735-60.907a136.073,136.073,0,0,1,70.005-54.058c11.954-3.993,21.2-5.813,35.382-6.925C207.665-1202.468,219.644-1202.417,222.828-1202.19Zm55.019,7.228c1.845.91,4.953,2.6,6.9,3.715,3.488,1.971,12.08,7.531,12.358,7.961a32.613,32.613,0,0,1-4.119,5.686c-.076-.025-1.946-1.238-4.119-2.679a138.339,138.339,0,0,0-16.073-9.2l-3.841-1.845.354-.834c.177-.43.834-1.9,1.415-3.235l1.061-2.452,1.339.607C273.854-1196.933,275.977-1195.9,277.847-1194.962Zm-121.612.354c.834,1.668,1.516,3.083,1.516,3.159a41.616,41.616,0,0,1-3.841,1.971,134.108,134.108,0,0,0-15.745,9c-2.224,1.466-4.17,2.755-4.347,2.881-.177.1-.96-.783-2.2-2.6a25.139,25.139,0,0,1-1.921-3.007c0-.379,8.037-5.636,12.384-8.113,3.437-1.971,12-6.318,12.434-6.318A18.636,18.636,0,0,1,156.235-1194.608Zm-25.172,14.633c1.061,1.516,1.921,2.805,1.921,2.856,0,.076-1.365,1.163-3.033,2.451-1.643,1.289-3.917,3.134-5.029,4.094a16.792,16.792,0,0,1-2.249,1.744,23,23,0,0,1-2.7-2.35l-2.5-2.35,1.061-.96c2.906-2.628,10.008-8.239,10.438-8.239A19.548,19.548,0,0,1,131.063-1179.975Zm169.681-.632c2.376,1.845,5.333,4.22,7.228,5.914l.935.809-2.325,2.527a21.771,21.771,0,0,1-2.553,2.527,15.932,15.932,0,0,1-2.3-1.794c-1.137-.986-3.412-2.831-5.055-4.094-1.769-1.39-2.932-2.426-2.856-2.628.379-.935,3.867-5.358,4.145-5.257A34.162,34.162,0,0,1,300.744-1180.607Zm13.951,12.257c2.78,2.755,5.055,5.13,5.029,5.231a49.8,49.8,0,0,1-5.333,4.4c-.076,0-2.3-2.173-4.979-4.8l-4.852-4.827,2.325-2.5a21.777,21.777,0,0,1,2.553-2.527C309.564-1173.379,311.915-1171.13,314.695-1168.349Zm-195.08-2.325,2.426,2.477-4.9,4.827-4.9,4.852-2.628-2.275-2.628-2.3,1.441-1.643c1.516-1.744,8.365-8.391,8.618-8.391A26.831,26.831,0,0,1,119.615-1170.675Zm-10.362,10.337a22.071,22.071,0,0,1,2.5,2.325,23.764,23.764,0,0,1-2.022,2.527c-1.112,1.289-2.982,3.589-4.17,5.13-1.542,1.946-2.275,2.7-2.527,2.578-.758-.43-5.408-3.74-5.434-3.867-.025-.455,8.542-10.842,8.947-10.867A22.394,22.394,0,0,1,109.253-1160.338Zm212.922-.025a145.02,145.02,0,0,1,20.041,30.125l2.047,4.12-.708.354c-.379.2-1.845.885-3.285,1.491l-2.578,1.163-1.365-2.881a138.256,138.256,0,0,0-10.994-18.677l-1.769-2.527,2.7-1.971a21.059,21.059,0,0,0,2.805-2.275c.152-.48-.531-.076-3.109,1.794a25.852,25.852,0,0,1-2.679,1.794,21.87,21.87,0,0,1-2.3-2.729c-1.82-2.3-3.968-4.9-5.838-7.026-.48-.531-.455-.556,2.249-2.729a27.668,27.668,0,0,1,2.856-2.123A28.254,28.254,0,0,1,322.175-1160.363Zm-222,11.322a24.949,24.949,0,0,1,2.6,1.946,10,10,0,0,1-1.542,2.578,141.344,141.344,0,0,0-10.867,18.525l-1.365,2.856L85.8-1124.4c-1.794-.708-3.285-1.339-3.336-1.39-.2-.152,3.968-8.365,6.091-12.08,3.791-6.6,8.391-13.395,8.871-13.091C97.6-1150.861,98.841-1150,100.18-1149.041Zm244.994,25.121c1.769,3.943,4.574,11.6,4.322,11.853a40.468,40.468,0,0,1-6.6,1.9c-.051-.076-.682-1.693-1.365-3.563-.708-1.87-1.794-4.65-2.426-6.141l-1.137-2.729,1.946-.859c1.061-.48,2.4-1.112,2.957-1.365a5.134,5.134,0,0,1,1.339-.505C344.39-1125.361,344.82-1124.7,345.174-1123.92ZM84.865-1124.2c1.238.505,2.6,1.062,3.058,1.238l.809.354-1.137,2.729c-.632,1.491-1.744,4.322-2.451,6.268s-1.289,3.563-1.314,3.589c-.051.1-6.571-1.744-6.723-1.9-.354-.379,4.7-13.192,5.206-13.192A21.154,21.154,0,0,1,84.865-1124.2ZM350.152-1110.9c.076.329.657,2.35,1.289,4.5,1.238,4.2,2.3,8.568,2.123,8.744-.126.1-5.13,1.238-6.217,1.415-.556.076-.632-.126-1.693-4.221-.607-2.376-1.441-5.333-1.845-6.621l-.733-2.325,1.415-.43c.783-.227,2.275-.682,3.311-1.011C350.178-1111.562,350-1111.562,350.152-1110.9Zm-270.8.3c1.213.354,2.679.733,3.235.885l1.061.278-.758,2.35c-.4,1.264-1.238,4.246-1.845,6.621-.733,2.856-1.213,4.3-1.441,4.271-.177-.025-1.719-.278-3.412-.607-2.831-.531-3.109-.632-3.109-1.112,0-1.365,3.437-13.293,3.816-13.293C77.056-1111.208,78.142-1110.93,79.355-1110.6Zm274.765,14.86c.531,2.477,1.719,9.932,1.82,11.322l.076,1.365-3.336.505a25.858,25.858,0,0,1-3.488.379c-.051-.076-.354-1.769-.632-3.791-.3-2-.783-4.979-1.112-6.6l-.581-2.957,2.426-.531c1.339-.3,2.78-.632,3.184-.758C353.741-1097.156,353.817-1097.106,354.12-1095.741Zm-277.621-.43c1.794.354,3.285.632,3.285.632.025,0-.227,1.339-.531,2.957-.329,1.643-.809,4.625-1.112,6.647-.3,2-.581,3.69-.657,3.766a42.622,42.622,0,0,1-6.748-.986c-.3-.278,1.289-10.741,2-13.218C72.911-1096.9,72.582-1096.929,76.5-1096.171Zm-2.072,14.254c1.617.253,3.007.505,3.058.556a12.867,12.867,0,0,1-.152,2.123,177.355,177.355,0,0,0-.076,24.565l.152,1.314-1.087.126c-.607.076-2.173.2-3.538.278-2.2.152-2.451.1-2.578-.3-.329-1.188-.708-12.257-.556-16.731.177-5.029.556-10.817.783-11.853C70.586-1082.5,70.611-1082.5,74.427-1081.917Zm281.816-.051c.91,3.033.986,28.129.1,29.038a54.542,54.542,0,0,1-6.9-.96c-.025-.051.025-1.339.152-2.856.455-5.762.177-21.431-.4-24.085a1.555,1.555,0,0,1-.076-.581c.581-.126,5.813-.935,6.318-.96C355.864-1082.4,356.142-1082.245,356.243-1081.967Zm.1,29.771a132.072,132.072,0,0,1-2.1,14,42.107,42.107,0,0,1-6.824-1.264,14.763,14.763,0,0,1,.379-2.906c.43-2.275,1.516-10.008,1.516-10.69A55.968,55.968,0,0,1,356.344-1052.2ZM77.915-1048.86c.253,2.072.708,5.029.986,6.52.253,1.516.455,2.78.43,2.805-.1.1-6.874,1.339-6.95,1.264-.278-.278-2.224-13.723-2.022-13.951.1-.076,6.849-.505,6.975-.455C77.384-1052.651,77.637-1050.932,77.915-1048.86Zm2.3,13.041c.379,1.693,1.163,4.675,1.719,6.621.531,1.921.96,3.538.935,3.563a42.016,42.016,0,0,1-6.748,1.719c-.379-.379-2.856-9.679-3.412-12.788-.177-.91-.177-.935.809-1.112.531-.1,2-.379,3.235-.632,1.264-.227,2.4-.455,2.527-.455A10.116,10.116,0,0,1,80.215-1035.819Zm270.595-2.325a20.361,20.361,0,0,1,3.134.733c.329.3-2.906,13.268-3.437,13.8a18.936,18.936,0,0,1-3.437-.91c-2.729-.859-3.311-1.137-3.21-1.466.758-2.477,2.022-7.177,2.578-9.629.48-2.148.809-3.058,1.061-3.058C347.7-1038.675,349.167-1038.423,350.809-1038.145Zm-266.6,16.2c.581,1.719,1.617,4.5,2.3,6.217s1.238,3.21,1.238,3.336a15.394,15.394,0,0,1-3.058,1.794c-2.4,1.188-3.134,1.466-3.285,1.188-.708-1.087-5.257-13.5-5-13.673.1-.1,6.268-1.9,6.571-1.921A15.242,15.242,0,0,1,84.208-1021.945Zm263.114-1.9c3.513,1.087,3.361.3,1.213,6.293-1.9,5.231-3.134,8.087-3.488,8.011a50.014,50.014,0,0,1-6.091-2.856c0-.126.733-2.072,1.617-4.347.885-2.249,1.921-5.055,2.3-6.217.531-1.617.783-2.072,1.061-1.971C344.163-1024.826,345.679-1024.346,347.322-1023.84ZM88.908-1010.067a150.913,150.913,0,0,0,11.3,20.117,9.076,9.076,0,0,1,1.542,2.805c-.126.126-1.415,1.087-2.856,2.148l-2.6,1.921-.783-1.087c-1.668-2.275-5-7.557-7-11.044-2.2-3.791-6.571-12.535-6.571-13.066a33.183,33.183,0,0,1,6.116-3.336A4.753,4.753,0,0,1,88.908-1010.067Zm252.853-.278c1.592.708,2.982,1.39,3.109,1.491.455.43-5.535,12.03-9.528,18.449-1.163,1.87-4.448,6.8-4.878,7.279-.051.076-2.4-1.491-5.863-3.892a25.659,25.659,0,0,1,1.794-2.78,152.694,152.694,0,0,0,11.4-20.269,5.215,5.215,0,0,1,.885-1.567C338.78-1011.633,340.17-1011.052,341.762-1010.345Zm-237.69,25.8c.96,1.289,2.906,3.766,4.347,5.484a36.974,36.974,0,0,1,2.527,3.159c-.051.025-1.238,1.036-2.654,2.249s-2.628,2.2-2.7,2.2c-.2,0-4.827-5.585-7.076-8.542l-1.921-2.578,2.831-2.123c1.567-1.188,2.856-2.148,2.881-2.173C102.3-986.866,103.112-985.8,104.072-984.541Zm223.31.126,2.729,1.87-1.946,2.553c-2.6,3.437-6.849,8.542-7.127,8.542a46.749,46.749,0,0,1-5.282-4.3,21.886,21.886,0,0,1,2.527-3.336c1.441-1.693,3.336-4.094,4.221-5.307.91-1.213,1.744-2.123,1.9-2.047C324.551-986.336,325.891-985.426,327.382-984.415ZM120.828-965.688a22.145,22.145,0,0,1-2.173,2.755l-2.2,2.578-1.643-1.491c-1.516-1.339-3.311-3.159-7.43-7.481l-1.491-1.542,2.7-2.3,2.7-2.3,4.751,4.8C118.68-968.013,120.828-965.764,120.828-965.688Zm197.051-7.481a13.174,13.174,0,0,1,2.553,2.4c-.076.43-6.621,7.3-8.416,8.82l-1.39,1.188-2.477-2.451-2.451-2.451,4.675-4.776c2.578-2.628,4.751-4.777,4.8-4.777C315.225-975.241,316.439-974.306,317.879-973.168ZM124.442-962.781c2.123,1.82,6.925,5.661,7.481,5.964.253.152-.152.91-1.744,3.134l-2.072,2.932-1.137-.809c-1.365-.986-6.773-5.408-8.719-7.127l-1.415-1.264,2.325-2.7c2.275-2.628,2.325-2.679,2.831-2.249C122.268-964.652,123.38-963.691,124.442-962.781Zm184.213,3.917c-2.072,1.845-7.455,6.242-8.921,7.3l-1.112.809-2.2-2.628a24.888,24.888,0,0,1-2.2-2.881c0-.126.3-.43.708-.657.96-.632,6.116-4.8,8.391-6.8l1.9-1.643,2.527,2.527,2.527,2.527Zm-172.36,5.13a141.168,141.168,0,0,0,15.644,9.275,45.294,45.294,0,0,1,4.751,2.578,39.983,39.983,0,0,1-2.5,6.167c-.253.278-6.647-2.805-11.347-5.484-5.914-3.361-14.254-8.845-14.1-9.275.3-.834,3.917-5.737,4.145-5.585C133.009-955.983,134.551-954.922,136.295-953.734Zm159.547.531a29.727,29.727,0,0,1,2.173,2.755c0,.329-6.217,4.5-10.994,7.38a154.129,154.129,0,0,1-13.9,7.354c-.455.126-.708-.253-2.072-2.982l-1.567-3.134,4.625-2.3a147.938,147.938,0,0,0,16.326-9.6c1.592-1.112,2.982-2.022,3.083-2.047A27.966,27.966,0,0,1,295.841-953.2ZM161.391-940.137c1.971.809,4.827,1.9,6.343,2.426,1.542.531,2.805.986,2.831,1.011a33.933,33.933,0,0,1-1.036,3.311c-1.011,3.033-1.137,3.26-1.693,3.184a120.8,120.8,0,0,1-13.041-4.953,38.512,38.512,0,0,1,2.805-6.47C157.726-941.628,159.445-940.971,161.391-940.137ZM270.467-938.6c.834,1.668,1.516,3.109,1.516,3.235,0,.354-9.932,4.322-13.015,5.206-.455.126-.632-.2-1.592-2.957-.581-1.693-1.061-3.21-1.061-3.361a10.872,10.872,0,0,1,2.982-1.339c1.617-.581,4.372-1.668,6.116-2.4,1.744-.758,3.235-1.365,3.336-1.39A15.969,15.969,0,0,1,270.467-938.6Zm-88.96,4.953c1.592.379,2.932.708,2.957.708.025.025-.278,1.516-.682,3.311-.4,1.82-.758,3.361-.758,3.488,0,.1-.253.126-.556.051-4.246-.935-8.82-2.148-12-3.184l-1.542-.505,1.112-3.361,1.137-3.361,3.715,1.087C176.933-934.8,179.915-934,181.508-933.642Zm75.313.556c.859,2.477,1.011,3.184.758,3.336a121.5,121.5,0,0,1-13.117,3.589c-.581.076-.657-.051-1.314-2.831-.4-1.592-.708-3.134-.733-3.437,0-.48.354-.607,3.361-1.339,1.82-.455,4.751-1.238,6.5-1.769a17.052,17.052,0,0,1,3.311-.809C255.658-936.27,256.214-934.779,256.82-933.086Zm-66.973,1.163c2.022.329,4.7.758,5.939.91,1.264.152,2.4.329,2.553.379.177.051.152,1.011-.051,3.184-.177,1.719-.329,3.285-.329,3.437-.025.455-1.163.4-5.105-.177-2.982-.455-9.123-1.516-9.25-1.617-.051-.025.986-5.105,1.314-6.419.126-.48.278-.581.708-.48C185.93-932.631,187.826-932.277,189.848-931.923Zm52.036.076a41.827,41.827,0,0,1,1.264,5.99c-.43.4-13.976,2.426-14.279,2.123a50.877,50.877,0,0,1-.859-6.268c0-.657.025-.657,3.488-1.112,1.9-.227,4.827-.708,6.5-1.011,1.668-.328,3.159-.607,3.336-.632C241.5-932.757,241.758-932.353,241.884-931.848Zm-38.389,1.592a194.332,194.332,0,0,0,19.94,0,24.817,24.817,0,0,1,3.766-.126c.126.126,1.061,6.748.96,6.874-.2.278-9.149.682-14.81.682-5.863,0-14.532-.4-14.81-.682-.051-.051.556-6.47.632-6.95C199.2-930.559,200.209-930.508,203.495-930.255Z" transform="translate(-47.76 1228.13)" fill="#0c3d68"/>
    </g>
    <g transform="matrix(1, 0, 0, 1, -3.4, -1279.66)" filter="url(#Caminho_92)">
      <path id="Caminho_92-2" data-name="Caminho 92" d="M622.513-1204.4a3.076,3.076,0,0,0-.126,3.665c1.137,1.137,3.614.354,3.614-1.137,0-.96-.708-1.441-1.921-1.339-.834.076-.935.025-.885-.43.076-.455.227-.505,1.441-.43,1.39.076,1.39.076.91-.455A2.285,2.285,0,0,0,622.513-1204.4Zm2.047,2c.379.3.43.455.2.834a.909.909,0,0,1-1.592.1.617.617,0,0,1,.126-.885C623.776-1202.86,623.928-1202.86,624.56-1202.405Z" transform="translate(-460.84 1223.9)" fill="#0c3d68"/>
    </g>
    <g transform="matrix(1, 0, 0, 1, -3.4, -1279.66)" filter="url(#Caminho_93)">
      <path id="Caminho_93-2" data-name="Caminho 93" d="M641.465-1204.385a3.333,3.333,0,0,0-.025,3.639,2.614,2.614,0,0,0,3.058.025c.48-.4.581-.708.581-1.921s-.1-1.516-.581-1.921A2.266,2.266,0,0,0,641.465-1204.385Zm2.249.607c.379.733.2,2.3-.278,2.6-.809.505-1.238.025-1.238-1.415a3.905,3.905,0,0,1,.177-1.516A.919.919,0,0,1,643.714-1203.778Z" transform="translate(-475.09 1223.91)" fill="#0c3d68"/>
    </g>
    <g transform="matrix(1, 0, 0, 1, -3.4, -1279.66)" filter="url(#Caminho_94)">
      <path id="Caminho_94-2" data-name="Caminho 94" d="M650.8-1144.531a6.371,6.371,0,0,0-4.448,5.408c-.152,1.087-.152,1.112.657,1.289a14.112,14.112,0,0,0,1.921.152c1.061,0,1.112-.025,1.339-.96.48-1.719,1.617-2.5,3.184-2.224,1.289.253,1.9,1.188,1.9,2.906,0,1.87-.708,3.083-3.816,6.394-4.271,4.6-5.535,6.773-5.535,9.553v1.769l6.9-.051,6.874-.076v-3.791l-4.473-.076c-3.563-.051-4.5-.126-4.5-.4,0-.505.834-1.516,3.943-4.7a22.5,22.5,0,0,0,3.665-4.549c.809-1.542.859-1.794.859-4.17,0-1.971-.1-2.729-.48-3.412-1.163-2.173-2.7-3.083-5.459-3.184A9.769,9.769,0,0,0,650.8-1144.531Z" transform="translate(-478.89 1178.79)" fill="#0c3d68"/>
    </g>
    <g transform="matrix(1, 0, 0, 1, -3.4, -1279.66)" filter="url(#Caminho_95)">
      <path id="Caminho_95-2" data-name="Caminho 95" d="M588.578-1142.028,586-1139.981v1.744a4.387,4.387,0,0,0,.177,1.744,31.386,31.386,0,0,0,3.816-2.729l.809-.607v16.478H586v3.538h13.395v-3.538h-4.549l-.051-10.311-.076-10.286-1.794-.076-1.769-.076Z" transform="translate(-434.05 1178.36)" fill="#0c3d68"/>
    </g>
    <g transform="matrix(1, 0, 0, 1, -3.4, -1279.66)" filter="url(#Caminho_96)">
      <path id="Caminho_96-2" data-name="Caminho 96" d="M357.579-1070.054l-2.451,1.971-.051,1.845a7.145,7.145,0,0,0,.1,1.82c.051,0,.96-.657,2.022-1.466,1.036-.809,2.047-1.567,2.224-1.668.227-.152.3,1.516.3,7.91v8.087l-2.325.076-2.35.076-.076,1.82-.076,1.845h13.445l-.076-1.845-.076-1.82-2.2-.076-2.224-.076V-1072h-3.74Z" transform="translate(-261.36 1124.48)" fill="#0c3d68"/>
    </g>
    <g transform="matrix(1, 0, 0, 1, -3.4, -1279.66)" filter="url(#Caminho_97)">
      <path id="Caminho_97-2" data-name="Caminho 97" d="M414.6-1070.054l-2.426,1.921v3.766l.96-.682c.505-.4,1.39-1.087,1.946-1.516s1.163-.885,1.339-.986c.227-.152.3,1.516.3,7.986v8.163h-4.675l-.076,1.82-.076,1.845h13.445l-.076-1.845-.076-1.82-2.2-.076-2.224-.076V-1072h-3.715Z" transform="translate(-303.95 1124.48)" fill="#0c3d68"/>
    </g>
    <g transform="matrix(1, 0, 0, 1, -3.4, -1279.66)" filter="url(#Caminho_98)">
      <path id="Caminho_98-2" data-name="Caminho 98" d="M857.553-1069.978,855-1067.956v1.769a4.465,4.465,0,0,0,.177,1.769,20.25,20.25,0,0,0,2.072-1.466c1.061-.809,2.072-1.567,2.249-1.668.227-.152.3,1.516.3,7.91v8.113H855v3.791l6.647-.051,6.621-.076v-3.538l-2.2-.076-2.224-.076V-1072H860.08Z" transform="translate(-635.07 1124.48)" fill="#0c3d68"/>
    </g>
    <g transform="matrix(1, 0, 0, 1, -3.4, -1279.66)" filter="url(#Caminho_99)">
      <path id="Caminho_99-2" data-name="Caminho 99" d="M530.551-914.563a6.731,6.731,0,0,0-3.538,3.791c-.758,2.047-.708,2.7.177,2.7.657.025.657.025.177.4-.278.2-5.231,3.033-10.994,6.268-15.366,8.618-41.119,23.428-68.186,39.223-6.975,4.094-12.763,7.43-12.813,7.43a8.853,8.853,0,0,1-.126-2.148v-2.148l.885-.556.885-.581v-31.717H431.71v31.717l.758.505c.758.505.758.531.758,2.856v2.376l-.809-.505c-.455-.278-5.56-3.109-11.322-6.293-14.431-7.986-31.616-17.64-44.783-25.121-6.6-3.766-11.3-6.293-11.676-6.293-.733,0-.885.581-.329,1.289.177.2,3.21,2.578,6.748,5.282,11.246,8.542,52.34,40.133,53.78,41.346a37.648,37.648,0,0,1-2.325,3.361,31.755,31.755,0,0,0-2.426,3.563c0,.126.253.253.581.253.531,0,8.77-.834,11.373-1.137l1.188-.152v96.314h-.556a5.923,5.923,0,0,0-3.563,2c-1.946,2.173-2.755,5.206-2.755,10.64-.025,4.145.278,6.015,1.339,8.264a6.1,6.1,0,0,0,5.838,3.867c3.816,0,6.242-2.78,6.47-7.43.2-4.145-.885-6.748-3.336-7.885l-1.339-.607-.051-1.921c-.025-1.289.025-1.87.2-1.744a.655.655,0,0,1,.278.531c0,.43.126.43,2.2.076.885-.152,1.592-.379,1.592-.505a12.884,12.884,0,0,0-.505-1.567,6.223,6.223,0,0,0-2.957-3.311l-.834-.4V-790.7c0-40.032.051-48.17.354-48.271.278-.1,9.528.986,10.968,1.289.885.2.682-.48-1.087-3.665a12.574,12.574,0,0,1-1.441-3.083c.177-.152,29.847-21.558,66.189-47.74,11.221-8.087,20.547-14.886,20.724-15.113.43-.556.4-1.213-.076-1.491-.379-.2-.379-.3-.025-.986a2.65,2.65,0,0,1,4.5-.152,5.36,5.36,0,0,1-.152,3.943,30.91,30.91,0,0,1-3.26,4.044c-4.549,4.979-5.712,6.95-5.712,9.781v1.769l6.9-.051L540-890.5l.076-1.971.076-1.946H535.58c-4.878,0-4.979-.025-4.119-1.264.227-.354,1.794-2.047,3.462-3.791,3.791-3.917,4.524-5.231,4.676-8.264.1-2.755-.379-4.246-1.87-5.585a6.207,6.207,0,0,0-2.047-1.289A12.513,12.513,0,0,0,530.551-914.563ZM433.226-736.113v2.628l-.783.278a4.808,4.808,0,0,0-1.542,1.087l-.783.834.152-2.047a13.118,13.118,0,0,1,.581-3.109c.379-.986,1.617-2.3,2.148-2.3A7.821,7.821,0,0,1,433.226-736.113Zm0,10.261c0,4.776-.1,5-1.516,3.589-1.365-1.365-1.744-4.827-.682-6.394a3.542,3.542,0,0,1,2.022-1.491A25.77,25.77,0,0,1,433.226-725.852Zm2.6-2.35c.531,1.9.43,4.17-.2,5.029-.253.379-.3-.076-.3-2.5C435.324-728.379,435.526-729.34,435.829-728.2Z" transform="translate(-268.14 1007.05)" fill="#0c3d68"/>
    </g>
    <g transform="matrix(1, 0, 0, 1, -3.4, -1279.66)" filter="url(#Caminho_100)">
      <path id="Caminho_100-2" data-name="Caminho 100" d="M247.308-907.255c-2.376,1.188-3.462,3.639-3.968,8.795a29.515,29.515,0,0,0,.859,10.488c1.087,3.184,3.058,4.852,5.787,4.852,4.549-.025,6.849-4.2,6.824-12.485-.025-4.145-.48-6.824-1.567-8.972-1.163-2.325-2.325-3.083-4.8-3.235A4.58,4.58,0,0,0,247.308-907.255Zm4.3,3.766c.91.885,1.238,3.007,1.238,7.86s-.3,6.849-1.264,7.961a2.015,2.015,0,0,1-3.033.177c-.96-1.036-1.163-2.173-1.289-6.9-.177-7.38.48-9.7,2.755-9.7A1.956,1.956,0,0,1,251.6-903.49Z" transform="translate(-177.9 1001.82)" fill="#0c3d68"/>
    </g>
    <g transform="matrix(1, 0, 0, 1, -3.4, -1279.66)" filter="url(#Caminho_101)">
      <path id="Caminho_101-2" data-name="Caminho 101" d="M185.477-904.878,183-902.856v1.769a5.409,5.409,0,0,0,.152,1.744,20.278,20.278,0,0,0,2.072-1.466c1.061-.809,2.1-1.567,2.275-1.668.227-.152.3,1.542.3,8.037v8.239H183v3.538h13.091l.1-1.769.076-1.769h-4.423l-.051-10.311-.076-10.286-1.9-.051-1.9-.051Z" transform="translate(-132.9 1001.11)" fill="#0c3d68"/>
    </g>
    <g transform="matrix(1, 0, 0, 1, -3.4, -1279.66)" filter="url(#Caminho_102)">
      <path id="Caminho_102-2" data-name="Caminho 102" d="M134.659-685.344a5.416,5.416,0,0,0-3.412,1.82c-1.592,1.668-2.3,4.17-2.022,7.2.278,3.285,1.744,5.863,3.766,6.621a5.2,5.2,0,0,0,5.484-1.289c.758-.809.758-.809.758-.2a15.675,15.675,0,0,1-.986,4.777c-.708,1.365-1.441,1.921-2.553,1.921a2.141,2.141,0,0,1-2.2-1.592c-.177-.43-.4-.809-.505-.809-.076,0-.885.126-1.794.278l-1.617.278.152.809a5.713,5.713,0,0,0,4.726,4.751c4.271.733,7.228-2.072,8.239-7.809.556-3.134.329-9.149-.4-11.5C140.977-684.181,138.425-685.95,134.659-685.344Zm2.3,3.917c2.047,1.062,2.6,5.661.935,7.582a2.4,2.4,0,0,1-3.361.3c-2.426-2.047-1.39-8.239,1.365-8.264A3.61,3.61,0,0,1,136.959-681.427Z" transform="translate(-92.67 835.63)" fill="#0c3d68"/>
    </g>
    <g transform="matrix(1, 0, 0, 1, -3.4, -1279.66)" filter="url(#Caminho_103)">
      <path id="Caminho_103-2" data-name="Caminho 103" d="M1098.546-677.343a6.608,6.608,0,0,0-3.488,4.852l-.152,1.011,1.769.177a7.4,7.4,0,0,0,2.022.025,1.907,1.907,0,0,0,.4-.91,2.42,2.42,0,0,1,2.426-2.022c1.365,0,2,.354,2.426,1.39a3.951,3.951,0,0,1-.783,4.423,5.329,5.329,0,0,1-1.971.48l-1.567.152v3.791l1.719.152c1.516.126,1.82.253,2.527.96.733.708.809.935.809,2.275,0,1.769-.43,2.654-1.567,3.184a3.114,3.114,0,0,1-4.271-1.87c-.3-1.365-.227-1.339-2.173-1.137a14.031,14.031,0,0,0-2.022.253c-.228.126.379,2.578.859,3.513a7.742,7.742,0,0,0,2.982,2.78,8.478,8.478,0,0,0,2.552.581c4.852.354,7.683-2.2,7.683-6.9a5.069,5.069,0,0,0-.682-3.21,5.119,5.119,0,0,0-3.083-2.376l-.733-.177.986-.455c2.628-1.264,3.715-4.246,2.755-7.506-.809-2.7-2.906-4.094-6.217-4.094A5.882,5.882,0,0,0,1098.546-677.343Z" transform="translate(-814.12 830.05)" fill="#0c3d68"/>
    </g>
    <g transform="matrix(1, 0, 0, 1, -3.4, -1279.66)" filter="url(#Caminho_104)">
      <path id="Caminho_104-2" data-name="Caminho 104" d="M209.652-448.542a5.654,5.654,0,0,0-4.473,4.347c-.657,2.654.4,5.838,2.224,6.723.859.43,1.087.783.455.783-.581,0-2.123,1.491-2.729,2.628A6.022,6.022,0,0,0,204.6-431c-.025,2.527.531,4.069,1.87,5.282,1.516,1.365,2.6,1.744,5.08,1.769a6.089,6.089,0,0,0,3.589-.708c2.376-1.137,3.462-3.159,3.462-6.343,0-2.679-1.036-4.65-2.805-5.408a2.789,2.789,0,0,1-.986-.531,2.21,2.21,0,0,1,.834-.505,5.2,5.2,0,0,0,1.567-1.466,4.47,4.47,0,0,0,.834-2.856c.152-2.451-.3-3.892-1.617-5.181A7.619,7.619,0,0,0,209.652-448.542Zm3.74,4.044c1.238,1.466.758,5.307-.708,5.686-2,.505-3.336-.379-3.614-2.376-.329-2.527.632-4.094,2.553-4.094A1.794,1.794,0,0,1,213.392-444.5Zm-.354,9.654c.935.455,1.516,1.82,1.516,3.538,0,2.6-.986,3.968-2.856,3.968-2.123,0-3.083-1.213-3.083-3.917,0-2.654.935-3.892,2.906-3.892A3.61,3.61,0,0,1,213.039-434.844Z" transform="translate(-149.04 658.75)" fill="#0c3d68"/>
    </g>
    <g transform="matrix(1, 0, 0, 1, -3.4, -1279.66)" filter="url(#Caminho_105)">
      <path id="Caminho_105-2" data-name="Caminho 105" d="M1019.094-432.317,1015-424.634v3.841h8.845v4.8h3.791v-4.8h2.527v-3.538h-2.527V-440h-4.423Zm4.8,2.553-.076,5.434h-2.78c-2.578,0-2.805-.025-2.654-.455.177-.455,5.484-10.412,5.535-10.412C1023.947-435.2,1023.947-432.747,1023.9-429.765Z" transform="translate(-754.63 652.2)" fill="#0c3d68"/>
    </g>
    <g transform="matrix(1, 0, 0, 1, -3.4, -1279.66)" filter="url(#Caminho_106)">
      <path id="Caminho_106-2" data-name="Caminho 106" d="M844.644-288.191c0,.455-.152,3.437-.328,6.647-.177,3.184-.278,5.889-.227,5.99a5.9,5.9,0,0,0,1.769.152c1.516,0,1.82-.1,2.527-.708a2.678,2.678,0,0,1,3.286-.581c1.365.657,1.921,1.769,1.921,3.841,0,2.831-1.112,4.4-3.134,4.4a2.81,2.81,0,0,1-2.729-1.9l-.4-.986-1.769.152a8.248,8.248,0,0,0-1.971.354,2.937,2.937,0,0,0,.2,1.441c.935,3.134,3.235,4.777,6.7,4.726a6.175,6.175,0,0,0,4.675-1.643c1.946-1.693,2.932-5.13,2.4-8.441a7.552,7.552,0,0,0-2.275-4.751c-1.719-1.542-4.751-1.87-6.343-.682-.43.329-.834.531-.885.455a16.274,16.274,0,0,1,.051-2.932l.177-2.805h8.264V-289H844.669Z" transform="translate(-626.51 539.37)" fill="#0c3d68"/>
    </g>
    <g transform="matrix(1, 0, 0, 1, -3.4, -1279.66)" filter="url(#Caminho_107)">
      <path id="Caminho_107-2" data-name="Caminho 107" d="M380.976-280.054l.076,1.971,4.827.126,4.8.126-1.693,3.134q-4.511,8.264-4.953,14.481l-.152,2.224H388v-1.087c0-3.791,1.643-9.3,4.549-15.315,1.921-3.943,2.022-4.221,2.022-5.863V-282H380.9Z" transform="translate(-280.79 534.13)" fill="#0c3d68"/>
    </g>
    <g transform="matrix(1, 0, 0, 1, -3.4, -1279.66)" filter="url(#Caminho_108)">
      <path id="Caminho_108-2" data-name="Caminho 108" d="M904.717-1131.014c-.834,1.036-.733,1.289.43,1.289,1.061,0,1.567,1.516.632,1.87-.505.2-1.365-.278-1.365-.733,0-.354-.935-.783-1.163-.556-.278.253.657,1.618,1.289,1.9,1.516.708,2.906.1,2.906-1.289a2.2,2.2,0,0,0-1.668-1.693c-.2,0-.354-.1-.354-.227,0-.531.531-.531,1.516-.025.96.48,1.516.505,1.516.025a8.432,8.432,0,0,0-2.7-1.542A3.557,3.557,0,0,0,904.717-1131.014Z" transform="translate(-671.09 1169.32)" fill="#0c3d68"/>
    </g>
    <g transform="matrix(1, 0, 0, 1, -3.4, -1279.66)" filter="url(#Caminho_109)">
      <path id="Caminho_109-2" data-name="Caminho 109" d="M363.488-1134.231c-1.289.733-1.314.809-.682,2.477.3.809.581.809,1.339-.025.758-.809,1.693-.657,1.693.278a1.089,1.089,0,0,1-1.314,1.011,1.056,1.056,0,0,0-.834.227c-.48.354-.48.379.2.531a2.525,2.525,0,0,0,2.6-.809,1.466,1.466,0,0,0-.177-2.4c-.607-.455-.708-.48-1.592-.1-1.163.48-1.264.505-1.365.2-.051-.152.43-.556,1.061-.935s1.087-.783,1.011-.91C365.206-1135.04,364.777-1134.939,363.488-1134.231Z" transform="translate(-266.96 1171.47)" fill="#0c3d68"/>
    </g>
    <g transform="matrix(1, 0, 0, 1, -3.4, -1279.66)" filter="url(#Caminho_110)">
      <path id="Caminho_110-2" data-name="Caminho 110" d="M346.947-1125.073c-1.365.758-1.466,1.036-.809,2.628l.329.834.632-.657c.885-.935,1.415-1.061,1.87-.43.329.505.329.606-.051,1.036a1.042,1.042,0,0,1-.96.328,1.516,1.516,0,0,0-1.036.2c-.455.354-.455.379.227.632a2.588,2.588,0,0,0,3.21-2.148c0-1.188-1.592-1.769-2.729-.96-.531.354-1.061.3-1.061-.126,0-.126.505-.48,1.137-.809,1.061-.556,1.314-.986.733-1.163A5.424,5.424,0,0,0,346.947-1125.073Z" transform="translate(-254.52 1164.61)" fill="#0c3d68"/>
    </g>
    <g transform="matrix(1, 0, 0, 1, -3.4, -1279.66)" filter="url(#Caminho_111)">
      <path id="Caminho_111-2" data-name="Caminho 111" d="M1105.255-940.582c.076.2.228.556.3.758q.152.341-1.137,1.137c-1.365.859-1.491,1.036-.935,1.491.48.4,4.246-1.82,4.018-2.376a.652.652,0,0,0-.581-.379,1.535,1.535,0,0,1-.885-.505C1105.507-941.062,1105.027-941.113,1105.255-940.582Z" transform="translate(-820.53 1026.55)" fill="#0c3d68"/>
    </g>
    <g transform="matrix(1, 0, 0, 1, -3.4, -1279.66)" filter="url(#Caminho_112)">
      <path id="Caminho_112-2" data-name="Caminho 112" d="M1112.68-924.49a2.122,2.122,0,0,0-1.112,2.578c.986,1.845,2.477,2,4.246.379a1.843,1.843,0,0,0-.1-2.679A2.113,2.113,0,0,0,1112.68-924.49Zm2.654.96c.3.581.126.859-.986,1.542-1.061.632-1.668.682-1.87.126-.253-.682-.177-.809.783-1.491C1114.373-924.111,1115-924.161,1115.333-923.53Z" transform="translate(-826.69 1014.63)" fill="#0c3d68"/>
    </g>
    <g transform="matrix(1, 0, 0, 1, -3.4, -1279.66)" filter="url(#Caminho_113)">
      <path id="Caminho_113-2" data-name="Caminho 113" d="M157.158-936.393c-1.339,1.339-.96,2.805.986,3.791a1.842,1.842,0,0,0,2.805-.935c.455-.859.48-.986.126-1.617a4.178,4.178,0,0,0-2.7-1.845A2.129,2.129,0,0,0,157.158-936.393Zm2.072,1.036c1.137.682,1.39,1.339.708,1.9-.3.253-.581.177-1.516-.354-1.137-.682-1.415-1.289-.834-1.87C157.992-936.09,157.941-936.09,159.23-935.357Z" transform="translate(-113 1023.6)" fill="#0c3d68"/>
    </g>
    <g transform="matrix(1, 0, 0, 1, -3.4, -1279.66)" filter="url(#Caminho_114)">
      <path id="Caminho_114-2" data-name="Caminho 114" d="M145.909-920.686l-.809,1.339.935.96c.859.859.96.91,1.238.505a1.65,1.65,0,0,0,.329-.859.96.96,0,0,1,1.264-.859c.859.278.632,1.314-.43,1.87-.682.354-.758,1.036-.126,1.036.607,0,1.744-1.213,1.946-2.072a1.764,1.764,0,0,0-.885-1.971,1.683,1.683,0,0,0-2.148,1.036c-.329.607-.48.733-.708.505s-.152-.556.278-1.314c.531-.91.556-1.491.1-1.491A5.588,5.588,0,0,0,145.909-920.686Z" transform="translate(-104.58 1012.39)" fill="#0c3d68"/>
    </g>
    <g transform="matrix(1, 0, 0, 1, -3.4, -1279.66)" filter="url(#Caminho_115)">
      <path id="Caminho_115-2" data-name="Caminho 115" d="M78.249-659.427a1.622,1.622,0,0,0-.607,1.516c0,.783-.076,1.036-.354.986-.227-.051-.354-.48-.379-1.339-.025-.986-.126-1.264-.455-1.339-.4-.076-.455.126-.455,1.567a4.043,4.043,0,0,0,.2,1.744,6.2,6.2,0,0,0,1.39.3c1.087.177,1.188.152,1.188-.329,0-.3-.1-.607-.253-.682-.379-.227-.3-1.036.126-1.39.607-.505,1.39-.076,1.39.783,0,.4-.1.733-.253.733-.126,0-.253.278-.253.632,0,.758.278.809.834.177a2.56,2.56,0,0,0,.43-1.643c0-.935-.126-1.238-.657-1.668C79.311-660.034,79.007-660.034,78.249-659.427Z" transform="translate(-52.94 816.51)" fill="#0c3d68"/>
    </g>
    <g transform="matrix(1, 0, 0, 1, -3.4, -1279.66)" filter="url(#Caminho_116)">
      <path id="Caminho_116-2" data-name="Caminho 116" d="M79.033-640.621c0,.3-.329.379-1.516.379-1.491,0-1.516.025-1.516.682,0,.556.3.935,1.441,1.82,1.921,1.466,2.2,1.466,2.3-.051.076-.986.152-1.188.581-1.188.354,0,.48-.177.48-.632s-.126-.632-.505-.632c-.278,0-.505-.177-.505-.379a.389.389,0,0,0-.379-.379A.389.389,0,0,0,79.033-640.621Zm0,2.426v.758l-.885-.682a4.8,4.8,0,0,1-.885-.758,2.152,2.152,0,0,1,.885-.1C78.957-638.978,79.033-638.928,79.033-638.195Z" transform="translate(-52.94 802.41)" fill="#0c3d68"/>
    </g>
    <g transform="matrix(1, 0, 0, 1, -3.4, -1279.66)" filter="url(#Caminho_117)">
      <path id="Caminho_117-2" data-name="Caminho 117" d="M1187.235-660.324c-.076.682-.152.708-1.643.783-1.39.076-1.592.152-1.592.556,0,.455.177.505,2.275.505,2.4,0,2.628-.126,1.9-1.112a2.012,2.012,0,0,1-.379-.96C1187.791-661.284,1187.336-661.082,1187.235-660.324Z" transform="translate(-880.92 817.36)" fill="#0c3d68"/>
    </g>
    <g transform="matrix(1, 0, 0, 1, -3.4, -1279.66)" filter="url(#Caminho_118)">
      <path id="Caminho_118-2" data-name="Caminho 118" d="M1183.844-642.57a3.067,3.067,0,0,0,.126,3.083,1.574,1.574,0,0,0,2.249.076,2.276,2.276,0,0,0,.43-1.39c0-.657.1-.935.379-.935s.379.3.379,1.264.1,1.264.379,1.264c.3,0,.379-.354.379-1.617v-1.617l-.91-.152c-.48-.1-1.061-.253-1.289-.329-.328-.126-.354.025-.2,1.112.126.935.076,1.314-.2,1.542-.834.708-1.845-.607-1.087-1.44.505-.556.531-1.289.051-1.289A1.039,1.039,0,0,0,1183.844-642.57Z" transform="translate(-880.54 803.9)" fill="#0c3d68"/>
    </g>
    <g transform="matrix(1, 0, 0, 1, -3.4, -1279.66)" filter="url(#Caminho_119)">
      <path id="Caminho_119-2" data-name="Caminho 119" d="M145.632-376.448c-.278.177-.2.4.329,1.188.556.834.607,1.011.278,1.339-.505.581-.025,1.39.607,1.061a.563.563,0,0,1,.733.025c.2.2.354.1.531-.354a3.084,3.084,0,0,1,1.264-1.213c.91-.531.96-.632.733-1.163a1.332,1.332,0,0,0-.682-.708A10.02,10.02,0,0,0,145.632-376.448Zm2.982.783c.253,0,.076.227-.43.531-.809.531-.834.531-1.188.076-.556-.733-.455-.935.4-.758A9.781,9.781,0,0,0,148.615-375.664Z" transform="translate(-104.86 604.8)" fill="#0c3d68"/>
    </g>
    <g transform="matrix(1, 0, 0, 1, -3.4, -1279.66)" filter="url(#Caminho_120)">
      <path id="Caminho_120-2" data-name="Caminho 120" d="M155.87-363.48a3.371,3.371,0,0,0-1.87,2.148,3.1,3.1,0,0,0,1.617,2.2c.834.2,1.542-.051,2.578-.96a1.665,1.665,0,0,0,.48-2.477C158.044-363.809,157.235-364.062,155.87-363.48Zm2,1.213c.4.607.051,1.137-1.087,1.719-.834.43-1.137.48-1.415.227-.632-.531-.4-1.188.733-1.845C157.235-362.874,157.488-362.874,157.867-362.267Z" transform="translate(-111.23 595.25)" fill="#0c3d68"/>
    </g>
    <g transform="matrix(1, 0, 0, 1, -3.4, -1279.66)" filter="url(#Caminho_121)">
      <path id="Caminho_121-2" data-name="Caminho 121" d="M1117.621-383.125c-1.137,1.339-.809,2.654.859,3.513,1.314.682,1.668.632,2.552-.227,1.238-1.264.885-2.831-.885-3.665C1118.91-384.085,1118.354-384.01,1117.621-383.125Zm2.325.986c1.162.834,1.238,1.036.657,1.617-.531.531-.632.531-1.82-.354-1.087-.783-1.289-1.188-.758-1.719C1118.48-383.049,1118.809-382.974,1119.946-382.139Z" transform="translate(-830.82 610.27)" fill="#0c3d68"/>
    </g>
    <g transform="matrix(1, 0, 0, 1, -3.4, -1279.66)" filter="url(#Caminho_122)">
      <path id="Caminho_122-2" data-name="Caminho 122" d="M1107.036-367.515c-.986,1.137-1.213,2.325-.581,2.856.531.455.733.152.758-1.087,0-.96.051-1.061.632-1.061.606,0,.632.076.708,1.82.051,1.213.2,1.9.455,2.123.2.152.4.253.455.2.025-.051.556-.834,1.163-1.719.834-1.264.986-1.643.733-1.82-.253-.152-.48-.051-.733.329-.2.3-.581.783-.809,1.061-.43.505-.455.48-.4-.885a3.5,3.5,0,0,0-.278-1.845A1.581,1.581,0,0,0,1107.036-367.515Z" transform="translate(-822.71 598.34)" fill="#0c3d68"/>
    </g>
    <g transform="matrix(1, 0, 0, 1, -3.4, -1279.66)" filter="url(#Caminho_123)">
      <path id="Caminho_123-2" data-name="Caminho 123" d="M344.365-174.7c-.3.48.632.986,1.188.632.379-.227.556-.2.885.126.581.581.1,1.188-.783,1.011-.733-.126-.809.1-.227.733.455.505.329,1.238-.2,1.238a1.091,1.091,0,0,1-1.061-.859,1.184,1.184,0,0,0-.96-.91c-.126,0-.2.253-.2.581,0,.91,1.617,2.2,2.729,2.2a1.322,1.322,0,0,0,1.188-1.567c-.126-.505-.051-.657.354-.783.531-.126.733-1.036.329-1.592C346.943-174.823,344.794-175.379,344.365-174.7Z" transform="translate(-252.47 454.18)" fill="#0c3d68"/>
    </g>
    <g transform="matrix(1, 0, 0, 1, -3.4, -1279.66)" filter="url(#Caminho_124)">
      <path id="Caminho_124-2" data-name="Caminho 124" d="M360.916-165.115c-.935.96-.885,1.112.329,1.516.607.177.834.43.885.91.051.43-.076.733-.329.834-.505.177-1.39-.253-1.39-.682,0-.177-.227-.455-.505-.632-.43-.253-.531-.253-.657.051-.354.91,1.188,2.173,2.628,2.173a1.544,1.544,0,0,0,1.567-1.491,2.56,2.56,0,0,0-1.719-1.794c-.3,0-.3-.076-.051-.379.278-.329.455-.278,1.39.278.682.4,1.163.531,1.264.354a.468.468,0,0,0,0-.48,15.155,15.155,0,0,0-2.5-1.542C361.8-166,361.4-165.6,360.916-165.115Z" transform="translate(-264.57 447.45)" fill="#0c3d68"/>
    </g>
    <g transform="matrix(1, 0, 0, 1, -3.4, -1279.66)" filter="url(#Caminho_125)">
      <path id="Caminho_125-2" data-name="Caminho 125" d="M918.489-176.022l-1.289.733.354,1.188a9.346,9.346,0,0,0,.455,1.289c.051.051.43-.2.859-.556.859-.708,1.365-.783,1.794-.278.556.657-.48,1.744-1.238,1.289a.917.917,0,0,0-.783.227l-.531.354.556.3c1.112.581,3.285-.758,3.285-2.022,0-1.339-1.542-1.946-2.755-1.112-.48.354-.632.354-.809.076-.152-.253.1-.531.91-.986,1.061-.581,1.314-1.011.733-1.188A5.788,5.788,0,0,0,918.489-176.022Z" transform="translate(-681.55 455.45)" fill="#0c3d68"/>
    </g>
    <g transform="matrix(1, 0, 0, 1, -3.4, -1279.66)" filter="url(#Caminho_126)">
      <path id="Caminho_126-2" data-name="Caminho 126" d="M901.825-166.533c-1.163.505-1.744,1.289-1.542,2.047.152.556.227.607.657.379a1.076,1.076,0,0,0,.505-.885.727.727,0,0,1,.505-.758c1.163-.379,1.339.632.379,2.148-.607.96-.859,2.275-.43,2.275a14.767,14.767,0,0,0,3.589-2.022c0-.505-.505-.48-1.39.025a2.3,2.3,0,0,1-1.036.43,3.278,3.278,0,0,1,.531-1.238c.758-1.339.783-1.592.126-2.249C903.139-166.963,902.861-166.988,901.825-166.533Z" transform="translate(-668.88 448.09)" fill="#0c3d68"/>
    </g>
    <g transform="matrix(1, 0, 0, 1, -3.4, -1279.66)" filter="url(#Caminho_127)">
      <path id="Caminho_127-2" data-name="Caminho 127" d="M623.885-94.7c-.531.3-.885.708-.885,1.011,0,.379,1.213.2,1.365-.2.2-.531,1.264-.354,1.365.2.051.3-.152.531-.556.708-.758.278-.885.758-.177.758a1.192,1.192,0,0,1,.809.4c.278.354.253.455-.152.758-.607.455-.758.455-1.238-.025-.4-.4-1.415-.531-1.415-.152,0,.354.682.986,1.289,1.163,1.542.505,3.361-.758,2.755-1.87-.152-.3-.4-.531-.556-.531s-.076-.227.152-.48C627.777-94.215,625.527-95.63,623.885-94.7Z" transform="translate(-461.7 394.39)" fill="#0c3d68"/>
    </g>
    <g transform="matrix(1, 0, 0, 1, -3.4, -1279.66)" filter="url(#Caminho_128)">
      <path id="Caminho_128-2" data-name="Caminho 128" d="M643.188-94.662c-.758.3-1.137,1.39-.986,2.755.329,2.957,4.221,2.553,4.221-.43,0-1.213-.3-1.82-1.036-2.2A2.274,2.274,0,0,0,643.188-94.662Zm1.668.809c.48.48.379,2.654-.126,2.957-.809.455-1.339-.126-1.339-1.441,0-1.188.3-1.82.885-1.82A1,1,0,0,1,644.856-93.854Z" transform="translate(-476.03 394.31)" fill="#0c3d68"/>
    </g>
  </g>
</svg>
